<svg xmlns="http://www.w3.org/2000/svg" xmlns:xlink="http://www.w3.org/1999/xlink" viewBox="0 0 247.78 15.07"><defs><style>.cls-1{fill:url(#Dégradé_sans_nom_7);}</style><linearGradient id="Dégradé_sans_nom_7" x1="-573.88" y1="7.54" x2="-326.1" y2="7.54" gradientTransform="matrix(-1, 0, 0, 1, -326.1, 0)" gradientUnits="userSpaceOnUse"><stop offset="0" stop-color="#33588e"/><stop offset="1" stop-color="#281f4b"/></linearGradient></defs><g id="Calque_2" data-name="Calque 2"><g id="Calque_1-2" data-name="Calque 1"><path class="cls-1" d="M0,9.68A.26.26,0,0,0,.12,10a223.05,223.05,0,0,0,23.12,3.16c15.88,1.63,31,3,47.08.68,22.94-3.27,44.49-5.89,67.37-8.45,21.55-2.39,42.13-1,63.71,1.55,15.41,1.82,30.38.76,45.58-.33a.9.9,0,0,0,.8-.95.87.87,0,0,0-.82-.91c-36.68,2.33-72.13-8.9-109.68-3-23,3.59-44.26,6.58-67.09,9.6C46.48,14.45,23.48,12.94.31,9.55A.22.22,0,0,0,0,9.68Z"/></g></g></svg>