<svg xmlns="http://www.w3.org/2000/svg" xmlns:xlink="http://www.w3.org/1999/xlink" viewBox="0 0 247.78 15.07"><defs><style>.cls-1{fill:url(#Dégradé_sans_nom_7);}</style><linearGradient id="Dégradé_sans_nom_7" y1="7.54" x2="247.78" y2="7.54" gradientUnits="userSpaceOnUse"><stop offset="0" stop-color="#33588e"/><stop offset="1" stop-color="#281f4b"/></linearGradient></defs><g id="Calque_2" data-name="Calque 2"><g id="Calque_1-2" data-name="Calque 1"><path class="cls-1" d="M247.77,9.68a.26.26,0,0,1-.11.31,223.05,223.05,0,0,1-23.12,3.16c-15.88,1.63-31,3-47.08.68C154.52,10.56,133,7.94,110.09,5.38,88.54,3,68,4.33,46.38,6.93,31,8.75,16,7.69.8,6.6A.9.9,0,0,1,0,5.65a.87.87,0,0,1,.82-.91C37.5,7.07,73-4.16,110.5,1.73c22.95,3.59,44.26,6.58,67.09,9.6,23.71,3.12,46.71,1.61,69.88-1.78A.22.22,0,0,1,247.77,9.68Z"/></g></g></svg>