<svg xmlns="http://www.w3.org/2000/svg" viewBox="0 0 247.77 33.7"><defs><style>.cls-1{fill:hsl(26,61%,43%);}</style></defs><g id="Calque_2" data-name="Calque 2"><g id="Calque_1-2" data-name="Calque 1"><path class="cls-1" d="M178.38,17c-3.66.73-5.42,3.43-7.88,4.38s-3-1.76-1.69-2.63S170,17.49,170,17.49s-.56-.44-2.18.66c-1.35.87-2.73.33-2.87-1.38.14-1.76,1.52-2.27,2.87-1.39C169.43,16.5,170,16,170,16s.24-.36-1.18-1.27-.73-3.46,1.69-2.59,4.22,3.58,7.88,4.37C178.38,16.54,178.72,16.73,178.38,17Z"/><path class="cls-1" d="M178.52,17.78s-4.56,2.3-5.15,6.78c-.27,2.33.73,3.87,1.83,3.87.59-.08.8-.77.87-1.39s.83-1,1,0,.79,1,1.28,1c.34-.07,1.42-1,.48-3.13a6.78,6.78,0,0,1,.21-6.2C180.21,16.83,178.52,17.78,178.52,17.78Z"/><path class="cls-1" d="M178.52,15.89s-4.56-2.26-5.22-6.7c-.34-2.41.66-3.91,1.76-3.91.66,0,.86.77.86,1.35.15.66.91,1,1,0s.8-1,1.22-.94,1.48.87.47,3a7.21,7.21,0,0,0,.28,6.19C180.14,16.79,178.52,15.89,178.52,15.89Z"/><path class="cls-1" d="M188.6,17.13A9.44,9.44,0,0,1,184,18.22c-2.52-.1-3.08,1.32-3.87,1.17s-.48-1.75-.27-2.41c-.21-.58-.49-2.3.27-2.4s1.42,1.23,3.94,1.09c1.83-.07,4.38.73,4.52,1.1C188.6,16.77,188.81,16.91,188.6,17.13Z"/><path class="cls-1" d="M162.6,16.73c-1.49-.29-2.25-.29-4.36-2.27a4.73,4.73,0,0,0-6,.22c-2.6,2.52-4.91,1.64-4.91,1.64,3.14-1.89,2.87-3.71,6-5.24,3.94-1.82,5.78,2.41,5.78,2.41a2.62,2.62,0,0,1,1-3.79,2.34,2.34,0,0,1,3.46,2.47,2.44,2.44,0,0,1-2.42,2.12c.38-.73.58-1,.38-1.64s-1.49-.7-1.07.91c.48,1.82,3.8,2.76,3.8,2.76s.65.59,0,.88c0,0-3.32.95-3.8,2.77-.42,1.53.76,1.46,1.07.87s0-.87-.38-1.61a2.46,2.46,0,0,1,2.42,2.13c.34,1.81-1.76,3.57-3.46,2.47a2.62,2.62,0,0,1-1-3.79s-1.84,4.19-5.78,2.33c-3.17-1.45-2.9-3-6-4.88,0,0,2.31-1.13,4.91,1.31a4.63,4.63,0,0,0,6,.29c2.11-2,2.87-2,4.36-2.36"/><path class="cls-1" d="M149.44,16.73c3-.76,3.17-2.33,5.07-2.33,1.56,0,2.8,1.74,2.8,1.74a6.82,6.82,0,0,1,3.24.18s.87.38,0,.81a7.72,7.72,0,0,1-3.24.29,4.19,4.19,0,0,1-2.8,1.67C152.61,19.09,152.47,17.56,149.44,16.73Z"/><path class="cls-1" d="M237.45,17c-3.66.73-5.42,3.43-7.87,4.38s-3-1.76-1.69-2.63,1.17-1.24,1.17-1.24-.55-.44-2.18.66c-1.34.87-2.73.33-2.86-1.38.13-1.76,1.52-2.27,2.86-1.39,1.63,1.12,2.18.65,2.18.65s.24-.36-1.17-1.27-.73-3.46,1.69-2.59,4.21,3.58,7.87,4.37C237.45,16.54,237.8,16.73,237.45,17Z"/><path class="cls-1" d="M237.59,17.78s-4.56,2.3-5.15,6.78c-.27,2.33.73,3.87,1.84,3.87.58-.08.79-.77.86-1.39s.83-1,1,0,.79,1,1.28,1,1.41-1,.47-3.13a6.84,6.84,0,0,1,.21-6.2C239.28,16.83,237.59,17.78,237.59,17.78Z"/><path class="cls-1" d="M237.59,15.89s-4.56-2.26-5.22-6.7c-.34-2.41.66-3.91,1.76-3.91.66,0,.87.77.87,1.35s.9,1,1,0,.8-1,1.22-.94,1.48.87.48,3A7.24,7.24,0,0,0,238,14.9C239.21,16.79,237.59,15.89,237.59,15.89Z"/><path class="cls-1" d="M247.67,17.13a9.4,9.4,0,0,1-4.59,1.09c-2.52-.1-3.07,1.32-3.87,1.17s-.48-1.75-.27-2.41c-.21-.58-.49-2.3.27-2.4s1.42,1.23,3.94,1.09c1.83-.07,4.38.73,4.52,1.1C247.67,16.77,247.88,16.91,247.67,17.13Z"/><path class="cls-1" d="M221.67,16.73c-1.48-.29-2.24-.29-4.35-2.27a4.74,4.74,0,0,0-6,.22c-2.6,2.52-4.91,1.64-4.91,1.64,3.14-1.89,2.87-3.71,6-5.24,3.94-1.82,5.77,2.41,5.77,2.41a2.62,2.62,0,0,1,1-3.79,2.34,2.34,0,0,1,3.46,2.47,2.44,2.44,0,0,1-2.42,2.12c.38-.73.59-1,.38-1.64s-1.49-.7-1.07.91c.49,1.82,3.8,2.76,3.8,2.76s.66.59,0,.88c0,0-3.31.95-3.8,2.77-.42,1.53.76,1.46,1.07.87s0-.87-.38-1.61a2.45,2.45,0,0,1,2.42,2.13c.35,1.81-1.76,3.57-3.46,2.47a2.62,2.62,0,0,1-1-3.79s-1.83,4.19-5.77,2.33c-3.18-1.45-2.91-3-6-4.88,0,0,2.31-1.13,4.91,1.31a4.64,4.64,0,0,0,6,.29c2.11-2,2.87-2,4.35-2.36"/><path class="cls-1" d="M208.51,16.73c3-.76,3.17-2.33,5.08-2.33,1.55,0,2.8,1.74,2.8,1.74a6.84,6.84,0,0,1,3.24.18s.86.38,0,.81a7.74,7.74,0,0,1-3.24.29,4.22,4.22,0,0,1-2.8,1.67C211.68,19.09,211.55,17.56,208.51,16.73Z"/><path class="cls-1" d="M205.22,16.9c-2.34-.63-3.55-.69-6.83-4.1a7,7,0,0,0-9.53.15c-4.44,4-8,2.45-8,2.45,5.26-3,5-6.12,10.12-8.56,6.44-2.89,9,4.4,9,4.4a4.79,4.79,0,0,1,1.87-6.51C204.81,3.06,208,6,207.16,9.22a4.05,4.05,0,0,1-4.07,3.41c.76-1.27,1-1.72.78-2.71s-2.3-1.22-1.78,1.46c.68,3.1,5.93,4.94,5.93,4.94a.87.87,0,0,1-.23,1.46s-5.36,1.41-6.19,4.49c-.84,2.66,1.11,2.6,1.49,1.55s.12-1.55-.43-2.75a3.84,3.84,0,0,1,3.7,3.64c.39,3.23-3,6-5.83,4.12-2.6-1.93-2.22-4.68-1.1-6.59,0,0-3.36,7.13-9.39,3.81-4.95-2.73-4.46-5.23-9.33-8.62,0,0,3.74-1.87,7.79,2.47a7.08,7.08,0,0,0,9.48.74c3.63-3.25,4.84-3.2,7.24-3.74"/><path class="cls-1" d="M184.23,16.61c4.79-1.18,5.26-3.89,8.24-3.76C195,13,196.78,16,196.78,16a11.84,11.84,0,0,1,5.27.46s1.19.7,0,1.39a11.17,11.17,0,0,1-5.3.29s-2.21,2.83-4.59,2.74C189.06,20.79,188.93,18.1,184.23,16.61Z"/><path class="cls-1" d="M77.94,17c-3.66.73-5.42,3.43-7.87,4.38s-3-1.76-1.69-2.63,1.17-1.24,1.17-1.24-.55-.44-2.18.66c-1.34.87-2.73.33-2.86-1.38C64.64,15,66,14.5,67.37,15.38,69,16.5,69.55,16,69.55,16s.24-.36-1.17-1.27-.73-3.46,1.69-2.59,4.21,3.58,7.87,4.37C77.94,16.54,78.29,16.73,77.94,17Z"/><path class="cls-1" d="M78.08,17.78s-4.56,2.3-5.15,6.78c-.27,2.33.73,3.87,1.84,3.87.58-.08.79-.77.86-1.39s.83-1,1,0,.8,1,1.28,1,1.43-1,.48-3.13a6.84,6.84,0,0,1,.21-6.2C79.77,16.83,78.08,17.78,78.08,17.78Z"/><path class="cls-1" d="M78.08,15.89s-4.56-2.26-5.22-6.7c-.34-2.41.66-3.91,1.76-3.91.66,0,.87.77.87,1.35s.9,1,1,0,.8-1,1.22-.94,1.48.87.48,3a7.24,7.24,0,0,0,.27,6.19C79.7,16.79,78.08,15.89,78.08,15.89Z"/><path class="cls-1" d="M88.16,17.13a9.4,9.4,0,0,1-4.59,1.09c-2.52-.1-3.08,1.32-3.87,1.17s-.48-1.75-.27-2.41c-.21-.58-.49-2.3.27-2.4s1.42,1.23,3.94,1.09c1.83-.07,4.38.73,4.52,1.1C88.16,16.77,88.37,16.91,88.16,17.13Z"/><path class="cls-1" d="M62.16,16.73c-1.49-.29-2.24-.29-4.36-2.27a4.73,4.73,0,0,0-6,.22c-2.6,2.52-4.91,1.64-4.91,1.64,3.14-1.89,2.87-3.71,6-5.24,3.93-1.82,5.77,2.41,5.77,2.41a2.62,2.62,0,0,1,1-3.79,2.34,2.34,0,0,1,3.46,2.47,2.44,2.44,0,0,1-2.42,2.12c.38-.73.59-1,.38-1.64s-1.49-.7-1.07.91c.49,1.82,3.8,2.76,3.8,2.76s.66.59,0,.88c0,0-3.31.95-3.8,2.77-.42,1.53.76,1.46,1.07.87s0-.87-.38-1.61a2.46,2.46,0,0,1,2.42,2.13c.35,1.81-1.76,3.57-3.46,2.47a2.62,2.62,0,0,1-1-3.79s-1.84,4.19-5.77,2.33c-3.18-1.45-2.91-3-6-4.88,0,0,2.31-1.13,4.91,1.31a4.63,4.63,0,0,0,6,.29c2.12-2,2.87-2,4.36-2.36"/><path class="cls-1" d="M49,16.73c3-.76,3.17-2.33,5.08-2.33,1.55,0,2.79,1.74,2.79,1.74a6.87,6.87,0,0,1,3.25.18s.86.38,0,.81a7.77,7.77,0,0,1-3.25.29,4.19,4.19,0,0,1-2.79,1.67C52.17,19.09,52,17.56,49,16.73Z"/><path class="cls-1" d="M137,17c-3.66.73-5.43,3.43-7.88,4.38s-3-1.76-1.69-2.63,1.18-1.24,1.18-1.24-.56-.44-2.18.66c-1.35.87-2.73.33-2.87-1.38.14-1.76,1.52-2.27,2.87-1.39,1.62,1.12,2.18.65,2.18.65s.23-.36-1.18-1.27-.73-3.46,1.69-2.59,4.22,3.58,7.88,4.37C137,16.54,137.36,16.73,137,17Z"/><path class="cls-1" d="M137.15,17.78s-4.55,2.3-5.15,6.78c-.27,2.33.73,3.87,1.84,3.87.59-.08.79-.77.86-1.39s.83-1,1,0,.79,1,1.28,1,1.41-1,.48-3.13a6.81,6.81,0,0,1,.2-6.2C138.84,16.83,137.15,17.78,137.15,17.78Z"/><path class="cls-1" d="M137.15,15.89s-4.55-2.26-5.21-6.7c-.35-2.41.66-3.91,1.75-3.91.66,0,.87.77.87,1.35s.9,1,1,0,.79-1,1.21-.94,1.49.87.48,3a7.24,7.24,0,0,0,.27,6.19C138.77,16.79,137.15,15.89,137.15,15.89Z"/><path class="cls-1" d="M147.24,17.13a9.45,9.45,0,0,1-4.6,1.09c-2.52-.1-3.07,1.32-3.87,1.17s-.47-1.75-.27-2.41c-.2-.58-.48-2.3.27-2.4s1.42,1.23,3.95,1.09c1.83-.07,4.38.73,4.52,1.1C147.24,16.77,147.44,16.91,147.24,17.13Z"/><path class="cls-1" d="M121.23,16.73c-1.48-.29-2.24-.29-4.35-2.27a4.74,4.74,0,0,0-6,.22c-2.59,2.52-4.9,1.64-4.9,1.64,3.14-1.89,2.86-3.71,6-5.24,3.94-1.82,5.77,2.41,5.77,2.41a2.62,2.62,0,0,1,1-3.79,2.34,2.34,0,0,1,3.45,2.47,2.43,2.43,0,0,1-2.41,2.12c.37-.73.58-1,.37-1.64s-1.48-.7-1.07.91c.49,1.82,3.8,2.76,3.8,2.76s.66.59,0,.88c0,0-3.31.95-3.8,2.77-.41,1.53.76,1.46,1.07.87s0-.87-.37-1.61a2.44,2.44,0,0,1,2.41,2.13c.35,1.81-1.76,3.57-3.45,2.47a2.63,2.63,0,0,1-1-3.79S116,24.23,112,22.37c-3.18-1.45-2.9-3-6-4.88,0,0,2.31-1.13,4.9,1.31a4.64,4.64,0,0,0,6,.29c2.11-2,2.87-2,4.35-2.36"/><path class="cls-1" d="M108.07,16.73c3-.76,3.18-2.33,5.08-2.33,1.55,0,2.8,1.74,2.8,1.74a6.84,6.84,0,0,1,3.24.18s.86.38,0,.81a7.74,7.74,0,0,1-3.24.29,4.22,4.22,0,0,1-2.8,1.67C111.25,19.09,111.11,17.56,108.07,16.73Z"/><path class="cls-1" d="M104.78,16.9c-2.33-.63-3.55-.69-6.83-4.1a7,7,0,0,0-9.52.15c-4.45,4-8,2.45-8,2.45,5.26-3,5-6.12,10.12-8.56,6.44-2.89,9,4.4,9,4.4a4.79,4.79,0,0,1,1.87-6.51c2.92-1.67,6.15,1.29,5.27,4.49a4,4,0,0,1-4.06,3.41c.75-1.27,1-1.72.78-2.71s-2.31-1.22-1.78,1.46c.67,3.1,5.92,4.94,5.92,4.94a.87.87,0,0,1-.23,1.46s-5.35,1.41-6.19,4.49c-.83,2.66,1.11,2.6,1.5,1.55s.11-1.55-.44-2.75a3.85,3.85,0,0,1,3.71,3.64c.39,3.23-3,6-5.84,4.12-2.59-1.93-2.22-4.68-1.1-6.59,0,0-3.36,7.13-9.39,3.81-4.95-2.73-4.45-5.23-9.33-8.62,0,0,3.74-1.87,7.79,2.47a7.08,7.08,0,0,0,9.48.74c3.64-3.25,4.84-3.2,7.24-3.74"/><path class="cls-1" d="M83.79,16.61c4.79-1.18,5.26-3.89,8.25-3.76,2.48.19,4.3,3.13,4.3,3.13a11.89,11.89,0,0,1,5.28.46s1.18.7,0,1.39a11.14,11.14,0,0,1-5.29.29s-2.22,2.83-4.6,2.74C88.62,20.79,88.5,18.1,83.79,16.61Z"/><path class="cls-1" d="M46.89,16.06c0,3.85-4,6.05-4,6.05C37.92,50.21,0,18.37,0,18.37s35.85-35.58,42.4-7.71c0,0,4.09,2,4.49,5.4"/></g></g></svg>