<svg xmlns="http://www.w3.org/2000/svg" viewBox="0 0 247.77 33.7"><defs><style>.cls-1{fill:hsl(26,61%,43%);}</style></defs><g id="Calque_2" data-name="Calque 2"><g id="Calque_1-2" data-name="Calque 1"><path class="cls-1" d="M69.39,17c3.66.73,5.42,3.43,7.87,4.38s3-1.76,1.69-2.63-1.17-1.24-1.17-1.24.55-.44,2.17.66c1.35.87,2.74.33,2.87-1.38C82.69,15,81.3,14.5,80,15.38c-1.62,1.12-2.17.65-2.17.65s-.24-.36,1.17-1.27.73-3.46-1.69-2.59-4.21,3.58-7.87,4.37C69.39,16.54,69,16.73,69.39,17Z"/><path class="cls-1" d="M69.25,17.78s4.56,2.3,5.15,6.78c.27,2.33-.73,3.87-1.84,3.87-.58-.08-.79-.77-.86-1.39s-.83-1-1,0-.79,1-1.28,1S68,27,69,24.93a6.84,6.84,0,0,0-.21-6.2C67.56,16.83,69.25,17.78,69.25,17.78Z"/><path class="cls-1" d="M69.25,15.89s4.56-2.26,5.22-6.7c.34-2.41-.66-3.91-1.76-3.91-.66,0-.87.77-.87,1.35s-.9,1-1,0-.8-1-1.22-.94-1.48.87-.48,3a7.24,7.24,0,0,1-.27,6.19C67.63,16.79,69.25,15.89,69.25,15.89Z"/><path class="cls-1" d="M59.17,17.13a9.4,9.4,0,0,0,4.59,1.09c2.52-.1,3.07,1.32,3.87,1.17s.48-1.75.27-2.41c.21-.58.49-2.3-.27-2.4s-1.42,1.23-3.94,1.09c-1.83-.07-4.38.73-4.52,1.1C59.17,16.77,59,16.91,59.17,17.13Z"/><path class="cls-1" d="M85.17,16.73c1.48-.29,2.24-.29,4.35-2.27a4.74,4.74,0,0,1,6,.22c2.6,2.52,4.91,1.64,4.91,1.64-3.14-1.89-2.87-3.71-6-5.24-3.94-1.82-5.77,2.41-5.77,2.41a2.62,2.62,0,0,0-1-3.79,2.34,2.34,0,0,0-3.46,2.47,2.44,2.44,0,0,0,2.42,2.12c-.38-.73-.59-1-.38-1.64s1.49-.7,1.07.91c-.49,1.82-3.8,2.76-3.8,2.76s-.66.59,0,.88c0,0,3.31.95,3.8,2.77.42,1.53-.76,1.46-1.07.87s0-.87.38-1.61a2.45,2.45,0,0,0-2.42,2.13c-.35,1.81,1.76,3.57,3.46,2.47a2.63,2.63,0,0,0,1-3.79s1.83,4.19,5.77,2.33c3.18-1.45,2.91-3,6-4.88,0,0-2.31-1.13-4.91,1.31a4.64,4.64,0,0,1-6,.29c-2.11-2-2.87-2-4.35-2.36"/><path class="cls-1" d="M98.33,16.73c-3-.76-3.17-2.33-5.08-2.33-1.55,0-2.8,1.74-2.8,1.74a6.84,6.84,0,0,0-3.24.18s-.86.38,0,.81a7.74,7.74,0,0,0,3.24.29,4.22,4.22,0,0,0,2.8,1.67C95.16,19.09,95.29,17.56,98.33,16.73Z"/><path class="cls-1" d="M10.31,17c3.66.73,5.43,3.43,7.88,4.38s3-1.76,1.69-2.63-1.18-1.24-1.18-1.24.56-.44,2.18.66c1.35.87,2.73.33,2.87-1.38-.14-1.76-1.52-2.27-2.87-1.39C19.26,16.5,18.7,16,18.7,16s-.24-.36,1.18-1.27.73-3.46-1.69-2.59S14,15.75,10.31,16.54C10.31,16.54,10,16.73,10.31,17Z"/><path class="cls-1" d="M10.17,17.78s4.56,2.3,5.15,6.78c.28,2.33-.72,3.87-1.83,3.87-.59-.08-.8-.77-.86-1.39s-.83-1-1,0-.79,1-1.28,1S9,27,9.9,24.93a6.78,6.78,0,0,0-.21-6.2C8.49,16.83,10.17,17.78,10.17,17.78Z"/><path class="cls-1" d="M10.17,15.89s4.56-2.26,5.22-6.7c.35-2.41-.66-3.91-1.76-3.91-.65,0-.86.77-.86,1.35s-.9,1-1,0-.79-1-1.21-.94S9,6.56,10,8.71a7.24,7.24,0,0,1-.27,6.19C8.55,16.79,10.17,15.89,10.17,15.89Z"/><path class="cls-1" d="M.09,17.13a9.45,9.45,0,0,0,4.6,1.09c2.52-.1,3.07,1.32,3.86,1.17S9,17.64,8.83,17c.2-.58.48-2.3-.28-2.4s-1.41,1.23-3.94,1.09C2.78,15.6.23,16.4.09,16.77.09,16.77-.12,16.91.09,17.13Z"/><path class="cls-1" d="M26.1,16.73c1.48-.29,2.24-.29,4.35-2.27a4.74,4.74,0,0,1,6,.22c2.59,2.52,4.9,1.64,4.9,1.64-3.14-1.89-2.87-3.71-6-5.24-3.94-1.82-5.77,2.41-5.77,2.41a2.63,2.63,0,0,0-1-3.79,2.34,2.34,0,0,0-3.45,2.47,2.43,2.43,0,0,0,2.41,2.12c-.37-.73-.58-1-.37-1.64s1.48-.7,1.07.91c-.49,1.82-3.8,2.76-3.8,2.76s-.66.59,0,.88c0,0,3.31.95,3.8,2.77.41,1.53-.77,1.46-1.07.87s0-.87.37-1.61a2.44,2.44,0,0,0-2.41,2.13c-.35,1.81,1.75,3.57,3.45,2.47a2.64,2.64,0,0,0,1-3.79s1.83,4.19,5.77,2.33c3.17-1.45,2.9-3,6-4.88,0,0-2.31-1.13-4.9,1.31a4.64,4.64,0,0,1-6,.29c-2.11-2-2.87-2-4.35-2.36"/><path class="cls-1" d="M39.26,16.73c-3-.76-3.18-2.33-5.08-2.33-1.56,0-2.8,1.74-2.8,1.74a6.82,6.82,0,0,0-3.24.18s-.86.38,0,.81a7.72,7.72,0,0,0,3.24.29,4.19,4.19,0,0,0,2.8,1.67C36.08,19.09,36.22,17.56,39.26,16.73Z"/><path class="cls-1" d="M42.55,16.9c2.33-.63,3.55-.69,6.83-4.1A7,7,0,0,1,58.9,13c4.45,4,8,2.45,8,2.45-5.26-3-5-6.12-10.12-8.56-6.44-2.89-9,4.4-9,4.4a4.79,4.79,0,0,0-1.88-6.51C43,3.06,39.73,6,40.61,9.22a4,4,0,0,0,4.06,3.41c-.76-1.27-1-1.72-.78-2.71s2.31-1.22,1.78,1.46c-.67,3.1-5.92,4.94-5.92,4.94A.87.87,0,0,0,40,17.78s5.35,1.41,6.19,4.49c.83,2.66-1.12,2.6-1.5,1.55s-.11-1.55.44-2.75a3.85,3.85,0,0,0-3.71,3.64c-.39,3.23,3,6,5.84,4.12,2.59-1.93,2.22-4.68,1.1-6.59,0,0,3.36,7.13,9.38,3.81,5-2.73,4.46-5.23,9.34-8.62,0,0-3.74-1.87-7.79,2.47a7.08,7.08,0,0,1-9.48.74c-3.64-3.25-4.85-3.2-7.24-3.74"/><path class="cls-1" d="M63.54,16.61c-4.79-1.18-5.26-3.89-8.25-3.76C52.81,13,51,16,51,16a11.89,11.89,0,0,0-5.28.46s-1.18.7,0,1.39a11.14,11.14,0,0,0,5.29.29s2.22,2.83,4.6,2.74C58.71,20.79,58.83,18.1,63.54,16.61Z"/><path class="cls-1" d="M169.82,17c3.67.73,5.42,3.43,7.88,4.38s3-1.76,1.69-2.63-1.18-1.24-1.18-1.24.56-.44,2.18.66c1.35.87,2.73.33,2.87-1.38-.14-1.76-1.52-2.27-2.87-1.39-1.62,1.12-2.18.65-2.18.65s-.23-.36,1.18-1.27.73-3.46-1.69-2.59-4.21,3.58-7.88,4.37C169.82,16.54,169.48,16.73,169.82,17Z"/><path class="cls-1" d="M169.69,17.78s4.55,2.3,5.14,6.78c.27,2.33-.72,3.87-1.83,3.87-.59-.08-.79-.77-.86-1.39s-.83-1-1,0-.79,1-1.28,1c-.34-.07-1.42-1-.48-3.13a6.81,6.81,0,0,0-.2-6.2C168,16.83,169.69,17.78,169.69,17.78Z"/><path class="cls-1" d="M169.69,15.89s4.55-2.26,5.21-6.7c.34-2.41-.66-3.91-1.75-3.91-.67,0-.87.77-.87,1.35s-.9,1-1,0-.79-1-1.21-.94-1.49.87-.48,3a7.24,7.24,0,0,1-.27,6.19C168.06,16.79,169.69,15.89,169.69,15.89Z"/><path class="cls-1" d="M159.6,17.13a9.49,9.49,0,0,0,4.6,1.09c2.52-.1,3.07,1.32,3.86,1.17s.48-1.75.28-2.41c.2-.58.48-2.3-.28-2.4s-1.41,1.23-3.94,1.09c-1.82-.07-4.38.73-4.52,1.1C159.6,16.77,159.4,16.91,159.6,17.13Z"/><path class="cls-1" d="M185.61,16.73c1.48-.29,2.24-.29,4.35-2.27a4.73,4.73,0,0,1,6,.22c2.6,2.52,4.92,1.64,4.92,1.64-3.15-1.89-2.87-3.71-6-5.24-3.94-1.82-5.77,2.41-5.77,2.41a2.62,2.62,0,0,0-1-3.79,2.34,2.34,0,0,0-3.45,2.47A2.43,2.43,0,0,0,187,14.29c-.37-.73-.58-1-.37-1.64s1.48-.7,1.07.91c-.49,1.82-3.8,2.76-3.8,2.76s-.66.59,0,.88c0,0,3.31.95,3.8,2.77.41,1.53-.76,1.46-1.07.87s0-.87.37-1.61a2.44,2.44,0,0,0-2.41,2.13c-.35,1.81,1.76,3.57,3.45,2.47a2.63,2.63,0,0,0,1-3.79s1.83,4.19,5.77,2.33c3.18-1.45,2.9-3,6-4.88,0,0-2.32-1.13-4.92,1.31a4.63,4.63,0,0,1-6,.29c-2.11-2-2.87-2-4.35-2.36"/><path class="cls-1" d="M198.77,16.73c-3-.76-3.18-2.33-5.08-2.33-1.55,0-2.8,1.74-2.8,1.74a6.84,6.84,0,0,0-3.24.18s-.86.38,0,.81a7.74,7.74,0,0,0,3.24.29,4.22,4.22,0,0,0,2.8,1.67C195.59,19.09,195.73,17.56,198.77,16.73Z"/><path class="cls-1" d="M110.75,17c3.66.73,5.43,3.43,7.88,4.38s3-1.76,1.69-2.63-1.18-1.24-1.18-1.24.55-.44,2.18.66c1.35.87,2.73.33,2.87-1.38-.14-1.76-1.52-2.27-2.87-1.39-1.63,1.12-2.18.65-2.18.65s-.24-.36,1.18-1.27.73-3.46-1.69-2.59-4.22,3.58-7.88,4.37C110.75,16.54,110.41,16.73,110.75,17Z"/><path class="cls-1" d="M110.61,17.78s4.56,2.3,5.15,6.78c.27,2.33-.73,3.87-1.83,3.87-.59-.08-.8-.77-.87-1.39s-.83-1-1,0-.8,1-1.29,1c-.33-.07-1.41-1-.47-3.13a6.81,6.81,0,0,0-.21-6.2C108.92,16.83,110.61,17.78,110.61,17.78Z"/><path class="cls-1" d="M110.61,15.89s4.56-2.26,5.22-6.7c.35-2.41-.66-3.91-1.76-3.91-.66,0-.86.77-.86,1.35s-.91,1-1,0-.8-1-1.22-.94-1.48.87-.47,3a7.28,7.28,0,0,1-.28,6.19C109,16.79,110.61,15.89,110.61,15.89Z"/><path class="cls-1" d="M100.53,17.13a9.44,9.44,0,0,0,4.59,1.09c2.52-.1,3.07,1.32,3.87,1.17s.48-1.75.28-2.41c.2-.58.48-2.3-.28-2.4s-1.42,1.23-3.94,1.09c-1.83-.07-4.38.73-4.52,1.1C100.53,16.77,100.32,16.91,100.53,17.13Z"/><path class="cls-1" d="M126.53,16.73c1.49-.29,2.25-.29,4.36-2.27a4.73,4.73,0,0,1,6,.22c2.6,2.52,4.91,1.64,4.91,1.64-3.14-1.89-2.87-3.71-6-5.24-3.94-1.82-5.78,2.41-5.78,2.41a2.62,2.62,0,0,0-1-3.79,2.34,2.34,0,0,0-3.46,2.47A2.44,2.44,0,0,0,128,14.29c-.38-.73-.58-1-.38-1.64s1.49-.7,1.07.91c-.48,1.82-3.8,2.76-3.8,2.76s-.65.59,0,.88c0,0,3.32.95,3.8,2.77.42,1.53-.76,1.46-1.07.87s0-.87.38-1.61a2.46,2.46,0,0,0-2.42,2.13c-.34,1.81,1.76,3.57,3.46,2.47A2.62,2.62,0,0,0,130,20s1.84,4.19,5.78,2.33c3.17-1.45,2.9-3,6-4.88,0,0-2.31-1.13-4.91,1.31a4.63,4.63,0,0,1-6,.29c-2.11-2-2.87-2-4.36-2.36"/><path class="cls-1" d="M139.69,16.73c-3-.76-3.17-2.33-5.07-2.33-1.56,0-2.8,1.74-2.8,1.74a6.87,6.87,0,0,0-3.25.18s-.86.38,0,.81a7.77,7.77,0,0,0,3.25.29,4.19,4.19,0,0,0,2.8,1.67C136.52,19.09,136.66,17.56,139.69,16.73Z"/><path class="cls-1" d="M143,16.9c2.34-.63,3.55-.69,6.83-4.1a7,7,0,0,1,9.53.15c4.44,4,8,2.45,8,2.45-5.26-3-5-6.12-10.12-8.56-6.44-2.89-9,4.4-9,4.4a4.79,4.79,0,0,0-1.88-6.51C143.4,3.06,140.17,6,141,9.22a4.06,4.06,0,0,0,4.07,3.41c-.76-1.27-1-1.72-.78-2.71s2.3-1.22,1.78,1.46c-.68,3.1-5.92,4.94-5.92,4.94a.87.87,0,0,0,.22,1.46s5.36,1.41,6.2,4.49c.83,2.66-1.12,2.6-1.5,1.55s-.12-1.55.43-2.75a3.84,3.84,0,0,0-3.7,3.64c-.39,3.23,3,6,5.84,4.12,2.59-1.93,2.21-4.68,1.09-6.59,0,0,3.37,7.13,9.39,3.81,5-2.73,4.46-5.23,9.33-8.62,0,0-3.74-1.87-7.79,2.47a7.08,7.08,0,0,1-9.48.74c-3.63-3.25-4.84-3.2-7.24-3.74"/><path class="cls-1" d="M164,16.61c-4.79-1.18-5.26-3.89-8.24-3.76-2.49.19-4.31,3.13-4.31,3.13a11.84,11.84,0,0,0-5.27.46s-1.19.7,0,1.39a11.12,11.12,0,0,0,5.29.29s2.22,2.83,4.6,2.74C159.14,20.79,159.27,18.1,164,16.61Z"/><path class="cls-1" d="M200.88,16.06c0,3.85,4.05,6.05,4.05,6.05,4.92,28.1,42.84-3.74,42.84-3.74s-35.85-35.58-42.41-7.71c0,0-4.09,2-4.48,5.4"/></g></g></svg>