<svg xmlns="http://www.w3.org/2000/svg" xmlns:xlink="http://www.w3.org/1999/xlink" viewBox="0 0 218.12 19.35"><defs><style>.cls-1{fill:url(#Dégradé_sans_nom_37);}.cls-2{fill:url(#Dégradé_sans_nom_37-2);}</style><linearGradient id="Dégradé_sans_nom_37" x1="-636.96" y1="8.72" x2="-621.71" y2="17.53" gradientTransform="matrix(-1, 0, 0, 1, -420, 0)" gradientUnits="userSpaceOnUse"><stop offset="0" stop-color="#2f7631"/><stop offset="0.59" stop-color="#2f7430"/><stop offset="0.8" stop-color="#2f6d2e"/><stop offset="0.95" stop-color="#30622a"/><stop offset="1" stop-color="#305c28"/></linearGradient><linearGradient id="Dégradé_sans_nom_37-2" x1="-584.96" y1="-30.6" x2="-446.3" y2="49.45" xlink:href="#Dégradé_sans_nom_37"/></defs><g id="Calque_2" data-name="Calque 2"><g id="Calque_1-2" data-name="Calque 1"><path class="cls-1" d="M209,16.11l.11.05.39,0c.45-.59,1.37-.43,2.57-.26,0-.18-.11-.36.32-.45,1.9.36,1,0,2.32-.36-.42,0-.95,0-1.16-.14l2.64-.18c-.36-.35-.66-.74-.22-1-.27-.7.6-1.54.93-2.28a4.51,4.51,0,0,1-1-.28c.06-.3.51-.44,1.07-.49a.87.87,0,0,0-.18-.22.87.87,0,0,1,.18.22,8.8,8.8,0,0,1,1.15,0c-.21-.09-.43-.18-.32-.32h-1.59c-.05-.07,0-.12.1-.17l-.41.17.31.18c.11.14-.1.23-.31.32a1.07,1.07,0,0,1-.74-.18l-.85.32c-.32.54,2.22.31.85.81l-.43-.13a4.7,4.7,0,0,0-1.9.49c-.64-.63-1.8.5-1.91-.36-2.43-.41-5.6.27-8-.63-.42.59-.42,1.72-1.48,2.45-.21-.1-.53-.19-.42-.32l-.74.32c.42,0,.95-.05,1.16.18-1.16.27.53.49.43.81l-1.59.32.19.12c2.84.19,5.68.74,8.52,1Z"/><path class="cls-2" d="M160.54,5.43l0,.68c-24.24,1.72-56.87-1.17-86.81-.82l.73-2.54C66.49,4.29,57.37,5.21,49.87,7l2.91.45c-2.67,1.4-9.48,2.3-13.69,2l.42-.65c5.76-.37-.39-.22,1.94-2l1-.33-.59-.33-1,.34c.12-.38,0-.87,1-1L40.5,5.36C37.63,3.56,37.62,2,38,0c-.75.25,0,2.23-3.17,1.57l.42-.65L31.72,2.09l-1.56-.86c-1.25.42-2.06.86-3.34.6l-.39,1.34c-5.73-.5-13,1-18.78.06C6.37,4.52,3.25,2.81,0,3.89L1.4,5.32c3.51,1.93,11.72.92,17.4,1.61l-.23.76c-1.19.23-2.05.86-3.53.49l-.38,1.33c2.49,4.69,10.23-1,12.3-.31,4.37,1.3-2.86,2.85-.77,2.67-4.82,1.78,4,3.31,6.05,4.87,5.66,3.11,18.09,1.54,25.58,1.46,12.49-3.32,29.14.09,40.69,0,5.54.39,14.46-4.66,18-.5l10.39.84-.22.77c10.1.24,21.26-1.59,30.69-2.16,4.12-.16,5.37-2.13,7.24,0,8.18,1.4,17.83-1.47,25.82-1.73,0-.68,1.08-1.4-.4-1.76-4.09.84-8.79-.86-8.94-2.71l1.53.18-2.73-1.5-1.75.59a2.06,2.06,0,0,1-.68-1.11c-3-.65-5.62-2.29-8.74-3.4A16.41,16.41,0,0,1,160.54,5.43Z"/></g></g></svg>