<svg xmlns="http://www.w3.org/2000/svg" xmlns:xlink="http://www.w3.org/1999/xlink" viewBox="0 0 200.47 7.72"><defs><style>.cls-1{fill:url(#Dégradé_sans_nom_9);}.cls-2{fill:url(#Dégradé_sans_nom_9-2);}.cls-3{fill:url(#Dégradé_sans_nom_9-3);}.cls-4{fill:url(#Dégradé_sans_nom_9-4);}.cls-5{fill:url(#Dégradé_sans_nom_9-5);}.cls-6{fill:url(#Dégradé_sans_nom_9-6);}.cls-7{fill:url(#Dégradé_sans_nom_9-7);}.cls-8{fill:url(#Dégradé_sans_nom_9-8);}.cls-9{fill:url(#Dégradé_sans_nom_9-9);}.cls-10{fill:url(#Dégradé_sans_nom_9-10);}.cls-11{fill:url(#Dégradé_sans_nom_9-11);}.cls-12{fill:url(#Dégradé_sans_nom_9-12);}.cls-13{fill:url(#Dégradé_sans_nom_9-13);}.cls-14{fill:url(#Dégradé_sans_nom_9-14);}.cls-15{fill:url(#Dégradé_sans_nom_9-15);}.cls-16{fill:url(#Dégradé_sans_nom_9-16);}.cls-17{fill:url(#Dégradé_sans_nom_9-17);}.cls-18{fill:url(#Dégradé_sans_nom_9-18);}.cls-19{fill:url(#Dégradé_sans_nom_9-19);}.cls-20{fill:url(#Dégradé_sans_nom_9-20);}.cls-21{fill:url(#Dégradé_sans_nom_9-21);}.cls-22{fill:url(#Dégradé_sans_nom_9-22);}.cls-23{fill:url(#Dégradé_sans_nom_9-23);}.cls-24{fill:url(#Dégradé_sans_nom_9-24);}.cls-25{fill:url(#Dégradé_sans_nom_9-25);}.cls-26{fill:url(#Dégradé_sans_nom_9-26);}.cls-27{fill:url(#Dégradé_sans_nom_9-27);}.cls-28{fill:url(#Dégradé_sans_nom_9-28);}.cls-29{fill:url(#Dégradé_sans_nom_9-29);}.cls-30{fill:url(#Dégradé_sans_nom_9-30);}.cls-31{fill:url(#Dégradé_sans_nom_9-31);}.cls-32{fill:url(#Dégradé_sans_nom_9-32);}.cls-33{fill:url(#Dégradé_sans_nom_9-33);}.cls-34{fill:url(#Dégradé_sans_nom_9-34);}.cls-35{fill:url(#Dégradé_sans_nom_9-35);}.cls-36{fill:url(#Dégradé_sans_nom_9-36);}.cls-37{fill:url(#Dégradé_sans_nom_9-37);}.cls-38{fill:url(#Dégradé_sans_nom_9-38);}.cls-39{fill:url(#Dégradé_sans_nom_9-39);}.cls-40{fill:url(#Dégradé_sans_nom_9-40);}.cls-41{fill:url(#Dégradé_sans_nom_9-41);}.cls-42{fill:url(#Dégradé_sans_nom_9-42);}.cls-43{fill:url(#Dégradé_sans_nom_9-43);}.cls-44{fill:url(#Dégradé_sans_nom_9-44);}.cls-45{fill:url(#Dégradé_sans_nom_9-45);}.cls-46{fill:url(#Dégradé_sans_nom_9-46);}.cls-47{fill:url(#Dégradé_sans_nom_9-47);}.cls-48{fill:url(#Dégradé_sans_nom_9-48);}.cls-49{fill:url(#Dégradé_sans_nom_9-49);}.cls-50{fill:url(#Dégradé_sans_nom_9-50);}.cls-51{fill:url(#Dégradé_sans_nom_9-51);}.cls-52{fill:url(#Dégradé_sans_nom_9-52);}.cls-53{fill:url(#Dégradé_sans_nom_9-53);}.cls-54{fill:url(#Dégradé_sans_nom_9-54);}.cls-55{fill:url(#Dégradé_sans_nom_9-55);}.cls-56{fill:url(#Dégradé_sans_nom_9-56);}.cls-57{fill:url(#Dégradé_sans_nom_9-57);}.cls-58{fill:url(#Dégradé_sans_nom_9-58);}.cls-59{fill:url(#Dégradé_sans_nom_9-59);}.cls-60{fill:url(#Dégradé_sans_nom_9-60);}.cls-61{fill:url(#Dégradé_sans_nom_9-61);}.cls-62{fill:url(#Dégradé_sans_nom_9-62);}.cls-63{fill:url(#Dégradé_sans_nom_9-63);}.cls-64{fill:url(#Dégradé_sans_nom_9-64);}.cls-65{fill:url(#Dégradé_sans_nom_9-65);}.cls-66{fill:url(#Dégradé_sans_nom_9-66);}.cls-67{fill:url(#Dégradé_sans_nom_9-67);}.cls-68{fill:url(#Dégradé_sans_nom_9-68);}.cls-69{fill:url(#Dégradé_sans_nom_9-69);}.cls-70{fill:url(#Dégradé_sans_nom_9-70);}.cls-71{fill:url(#Dégradé_sans_nom_9-71);}.cls-72{fill:url(#Dégradé_sans_nom_9-72);}.cls-73{fill:url(#Dégradé_sans_nom_9-73);}.cls-74{fill:url(#Dégradé_sans_nom_9-74);}.cls-75{fill:url(#Dégradé_sans_nom_9-75);}.cls-76{fill:url(#Dégradé_sans_nom_9-76);}.cls-77{fill:url(#Dégradé_sans_nom_9-77);}.cls-78{fill:url(#Dégradé_sans_nom_9-78);}.cls-79{fill:url(#Dégradé_sans_nom_9-79);}.cls-80{fill:url(#Dégradé_sans_nom_9-80);}.cls-81{fill:url(#Dégradé_sans_nom_9-81);}</style><linearGradient id="Dégradé_sans_nom_9" x1="-504.77" y1="6.51" x2="-504.47" y2="6.51" gradientTransform="matrix(-1, 0, 0, 1, -304.3, 0)" gradientUnits="userSpaceOnUse"><stop offset="0" stop-color="#e6332a"/><stop offset="1" stop-color="#f9b233"/></linearGradient><linearGradient id="Dégradé_sans_nom_9-2" x1="-499.73" y1="5.3" x2="-499.01" y2="5.3" xlink:href="#Dégradé_sans_nom_9"/><linearGradient id="Dégradé_sans_nom_9-3" x1="-498.05" y1="5.34" x2="-495.08" y2="5.34" xlink:href="#Dégradé_sans_nom_9"/><linearGradient id="Dégradé_sans_nom_9-4" x1="-493.21" y1="6.79" x2="-492.57" y2="6.79" xlink:href="#Dégradé_sans_nom_9"/><linearGradient id="Dégradé_sans_nom_9-5" x1="-493.27" y1="6.93" x2="-493.03" y2="6.93" xlink:href="#Dégradé_sans_nom_9"/><linearGradient id="Dégradé_sans_nom_9-6" x1="-491.52" y1="7" x2="-490.58" y2="7" xlink:href="#Dégradé_sans_nom_9"/><linearGradient id="Dégradé_sans_nom_9-7" x1="-490.61" y1="6.27" x2="-490.28" y2="6.27" xlink:href="#Dégradé_sans_nom_9"/><linearGradient id="Dégradé_sans_nom_9-8" x1="-491.31" y1="6.33" x2="-490.61" y2="6.33" xlink:href="#Dégradé_sans_nom_9"/><linearGradient id="Dégradé_sans_nom_9-9" x1="-492.71" y1="6.17" x2="-491.7" y2="6.17" xlink:href="#Dégradé_sans_nom_9"/><linearGradient id="Dégradé_sans_nom_9-10" x1="-495.73" y1="4.55" x2="-494.84" y2="4.55" xlink:href="#Dégradé_sans_nom_9"/><linearGradient id="Dégradé_sans_nom_9-11" x1="-487.66" y1="6.79" x2="-486.93" y2="6.79" xlink:href="#Dégradé_sans_nom_9"/><linearGradient id="Dégradé_sans_nom_9-12" x1="-487.2" y1="6.36" x2="-486.5" y2="6.36" xlink:href="#Dégradé_sans_nom_9"/><linearGradient id="Dégradé_sans_nom_9-13" x1="-491.32" y1="5.67" x2="-489.95" y2="5.67" xlink:href="#Dégradé_sans_nom_9"/><linearGradient id="Dégradé_sans_nom_9-14" x1="-484.66" y1="7.19" x2="-483.95" y2="7.19" xlink:href="#Dégradé_sans_nom_9"/><linearGradient id="Dégradé_sans_nom_9-15" x1="-482.56" y1="7.38" x2="-481.13" y2="7.38" xlink:href="#Dégradé_sans_nom_9"/><linearGradient id="Dégradé_sans_nom_9-16" x1="-481.13" y1="7.03" x2="-480.51" y2="7.03" xlink:href="#Dégradé_sans_nom_9"/><linearGradient id="Dégradé_sans_nom_9-17" x1="-485.3" y1="6.52" x2="-484.75" y2="6.52" xlink:href="#Dégradé_sans_nom_9"/><linearGradient id="Dégradé_sans_nom_9-18" x1="-485.04" y1="6.31" x2="-484.43" y2="6.31" xlink:href="#Dégradé_sans_nom_9"/><linearGradient id="Dégradé_sans_nom_9-19" x1="-485.37" y1="6.28" x2="-485.3" y2="6.28" xlink:href="#Dégradé_sans_nom_9"/><linearGradient id="Dégradé_sans_nom_9-20" x1="-488.33" y1="5.36" x2="-487.55" y2="5.36" xlink:href="#Dégradé_sans_nom_9"/><linearGradient id="Dégradé_sans_nom_9-21" x1="-486.51" y1="5.87" x2="-485.71" y2="5.87" xlink:href="#Dégradé_sans_nom_9"/><linearGradient id="Dégradé_sans_nom_9-22" x1="-485.71" y1="5.72" x2="-485.35" y2="5.72" xlink:href="#Dégradé_sans_nom_9"/><linearGradient id="Dégradé_sans_nom_9-23" x1="-482.08" y1="6.28" x2="-480.71" y2="6.28" xlink:href="#Dégradé_sans_nom_9"/><linearGradient id="Dégradé_sans_nom_9-24" x1="-483.36" y1="6.32" x2="-483.29" y2="6.32" xlink:href="#Dégradé_sans_nom_9"/><linearGradient id="Dégradé_sans_nom_9-25" x1="-476.88" y1="6.2" x2="-476.8" y2="6.2" xlink:href="#Dégradé_sans_nom_9"/><linearGradient id="Dégradé_sans_nom_9-26" x1="-482.76" y1="6.09" x2="-481.98" y2="6.09" xlink:href="#Dégradé_sans_nom_9"/><linearGradient id="Dégradé_sans_nom_9-27" x1="-479.97" y1="6.56" x2="-479.42" y2="6.56" xlink:href="#Dégradé_sans_nom_9"/><linearGradient id="Dégradé_sans_nom_9-28" x1="-483.23" y1="6.47" x2="-483.15" y2="6.47" xlink:href="#Dégradé_sans_nom_9"/><linearGradient id="Dégradé_sans_nom_9-29" x1="-483.29" y1="6.31" x2="-482.76" y2="6.31" xlink:href="#Dégradé_sans_nom_9"/><linearGradient id="Dégradé_sans_nom_9-30" x1="-477.6" y1="4.82" x2="-474.8" y2="4.82" xlink:href="#Dégradé_sans_nom_9"/><linearGradient id="Dégradé_sans_nom_9-31" x1="-478.57" y1="6.41" x2="-476.88" y2="6.41" xlink:href="#Dégradé_sans_nom_9"/><linearGradient id="Dégradé_sans_nom_9-32" x1="-480.71" y1="5.76" x2="-478.57" y2="5.76" xlink:href="#Dégradé_sans_nom_9"/><linearGradient id="Dégradé_sans_nom_9-33" x1="-487.13" y1="4.05" x2="-487.01" y2="4.05" xlink:href="#Dégradé_sans_nom_9"/><linearGradient id="Dégradé_sans_nom_9-34" x1="-487.47" y1="4.71" x2="-485.83" y2="4.71" xlink:href="#Dégradé_sans_nom_9"/><linearGradient id="Dégradé_sans_nom_9-35" x1="-483.19" y1="4.81" x2="-482" y2="4.81" xlink:href="#Dégradé_sans_nom_9"/><linearGradient id="Dégradé_sans_nom_9-36" x1="-476.82" y1="6.58" x2="-476.13" y2="6.58" xlink:href="#Dégradé_sans_nom_9"/><linearGradient id="Dégradé_sans_nom_9-37" x1="-475.17" y1="6.59" x2="-474.76" y2="6.59" xlink:href="#Dégradé_sans_nom_9"/><linearGradient id="Dégradé_sans_nom_9-38" x1="-387.47" y1="1.43" x2="-387.12" y2="1.43" xlink:href="#Dégradé_sans_nom_9"/><linearGradient id="Dégradé_sans_nom_9-39" x1="-390.08" y1="1.55" x2="-389.96" y2="1.55" xlink:href="#Dégradé_sans_nom_9"/><linearGradient id="Dégradé_sans_nom_9-40" x1="-436.97" y1="6.68" x2="-435.94" y2="6.68" xlink:href="#Dégradé_sans_nom_9"/><linearGradient id="Dégradé_sans_nom_9-41" x1="-411.34" y1="3.83" x2="-410.85" y2="3.83" xlink:href="#Dégradé_sans_nom_9"/><linearGradient id="Dégradé_sans_nom_9-42" x1="-410.49" y1="2.1" x2="-409.81" y2="2.1" xlink:href="#Dégradé_sans_nom_9"/><linearGradient id="Dégradé_sans_nom_9-43" x1="-373.61" y1="0.8" x2="-373.18" y2="0.8" xlink:href="#Dégradé_sans_nom_9"/><linearGradient id="Dégradé_sans_nom_9-44" x1="-459.21" y1="6.29" x2="-458.11" y2="6.29" xlink:href="#Dégradé_sans_nom_9"/><linearGradient id="Dégradé_sans_nom_9-45" x1="-388.48" y1="5.96" x2="-388.17" y2="5.96" xlink:href="#Dégradé_sans_nom_9"/><linearGradient id="Dégradé_sans_nom_9-46" x1="-458.11" y1="6.54" x2="-456.83" y2="6.54" xlink:href="#Dégradé_sans_nom_9"/><linearGradient id="Dégradé_sans_nom_9-47" x1="-323.23" y1="1.41" x2="-323.12" y2="1.41" xlink:href="#Dégradé_sans_nom_9"/><linearGradient id="Dégradé_sans_nom_9-48" x1="-309.16" y1="5.79" x2="-308.56" y2="5.79" xlink:href="#Dégradé_sans_nom_9"/><linearGradient id="Dégradé_sans_nom_9-49" x1="-469.02" y1="6.6" x2="-468.86" y2="6.6" xlink:href="#Dégradé_sans_nom_9"/><linearGradient id="Dégradé_sans_nom_9-50" x1="-470.47" y1="4.76" x2="-470.33" y2="4.76" xlink:href="#Dégradé_sans_nom_9"/><linearGradient id="Dégradé_sans_nom_9-51" x1="-453.59" y1="3.77" x2="-453.52" y2="3.77" xlink:href="#Dégradé_sans_nom_9"/><linearGradient id="Dégradé_sans_nom_9-52" x1="-469.36" y1="6.45" x2="-468.94" y2="6.45" xlink:href="#Dégradé_sans_nom_9"/><linearGradient id="Dégradé_sans_nom_9-53" x1="-469.6" y1="6.59" x2="-469.29" y2="6.59" xlink:href="#Dégradé_sans_nom_9"/><linearGradient id="Dégradé_sans_nom_9-54" x1="-468.94" y1="6.55" x2="-468.41" y2="6.55" xlink:href="#Dégradé_sans_nom_9"/><linearGradient id="Dégradé_sans_nom_9-55" x1="-350.21" y1="2.52" x2="-349.95" y2="2.52" xlink:href="#Dégradé_sans_nom_9"/><linearGradient id="Dégradé_sans_nom_9-56" x1="-428.44" y1="1.86" x2="-428.39" y2="1.86" xlink:href="#Dégradé_sans_nom_9"/><linearGradient id="Dégradé_sans_nom_9-57" x1="-428.39" y1="2.33" x2="-427.21" y2="2.33" xlink:href="#Dégradé_sans_nom_9"/><linearGradient id="Dégradé_sans_nom_9-58" x1="-474.38" y1="3.59" x2="-305.19" y2="3.59" xlink:href="#Dégradé_sans_nom_9"/><linearGradient id="Dégradé_sans_nom_9-59" x1="-410.54" y1="2.3" x2="-410.37" y2="2.3" xlink:href="#Dégradé_sans_nom_9"/><linearGradient id="Dégradé_sans_nom_9-60" x1="-373.66" y1="1.07" x2="-373.59" y2="1.07" xlink:href="#Dégradé_sans_nom_9"/><linearGradient id="Dégradé_sans_nom_9-61" x1="-449.11" y1="2.02" x2="-448.66" y2="2.02" xlink:href="#Dégradé_sans_nom_9"/><linearGradient id="Dégradé_sans_nom_9-62" x1="-472.27" y1="6.66" x2="-471.56" y2="6.66" xlink:href="#Dégradé_sans_nom_9"/><linearGradient id="Dégradé_sans_nom_9-63" x1="-478.79" y1="3.96" x2="-478.24" y2="3.96" xlink:href="#Dégradé_sans_nom_9"/><linearGradient id="Dégradé_sans_nom_9-64" x1="-473.94" y1="5.15" x2="-472.93" y2="5.15" xlink:href="#Dégradé_sans_nom_9"/><linearGradient id="Dégradé_sans_nom_9-65" x1="-474.53" y1="5.08" x2="-474.05" y2="5.08" xlink:href="#Dégradé_sans_nom_9"/><linearGradient id="Dégradé_sans_nom_9-66" x1="-468.09" y1="6.47" x2="-467.31" y2="6.47" xlink:href="#Dégradé_sans_nom_9"/><linearGradient id="Dégradé_sans_nom_9-67" x1="-473.34" y1="4.11" x2="-472.88" y2="4.11" xlink:href="#Dégradé_sans_nom_9"/><linearGradient id="Dégradé_sans_nom_9-68" x1="-470.4" y1="4.2" x2="-469.39" y2="4.2" xlink:href="#Dégradé_sans_nom_9"/><linearGradient id="Dégradé_sans_nom_9-69" x1="-471.05" y1="4.3" x2="-470.4" y2="4.3" xlink:href="#Dégradé_sans_nom_9"/><linearGradient id="Dégradé_sans_nom_9-70" x1="-472.25" y1="3.78" x2="-471.45" y2="3.78" xlink:href="#Dégradé_sans_nom_9"/><linearGradient id="Dégradé_sans_nom_9-71" x1="-460.83" y1="4.14" x2="-459.91" y2="4.14" xlink:href="#Dégradé_sans_nom_9"/><linearGradient id="Dégradé_sans_nom_9-72" x1="-463.44" y1="3.02" x2="-463.03" y2="3.02" xlink:href="#Dégradé_sans_nom_9"/><linearGradient id="Dégradé_sans_nom_9-73" x1="-461.23" y1="2.58" x2="-460.27" y2="2.58" xlink:href="#Dégradé_sans_nom_9"/><linearGradient id="Dégradé_sans_nom_9-74" x1="-447.98" y1="4.11" x2="-447.76" y2="4.11" xlink:href="#Dégradé_sans_nom_9"/><linearGradient id="Dégradé_sans_nom_9-75" x1="-437.39" y1="1.53" x2="-436.07" y2="1.53" xlink:href="#Dégradé_sans_nom_9"/><linearGradient id="Dégradé_sans_nom_9-76" x1="-437.16" y1="2.01" x2="-436.84" y2="2.01" xlink:href="#Dégradé_sans_nom_9"/><linearGradient id="Dégradé_sans_nom_9-77" x1="-306.13" y1="6.35" x2="-305.46" y2="6.35" xlink:href="#Dégradé_sans_nom_9"/><linearGradient id="Dégradé_sans_nom_9-78" x1="-304.85" y1="5.88" x2="-304.3" y2="5.88" xlink:href="#Dégradé_sans_nom_9"/><linearGradient id="Dégradé_sans_nom_9-79" x1="-395.7" y1="0.54" x2="-395.13" y2="0.54" xlink:href="#Dégradé_sans_nom_9"/><linearGradient id="Dégradé_sans_nom_9-80" x1="-386.79" y1="1.13" x2="-386.5" y2="1.13" xlink:href="#Dégradé_sans_nom_9"/><linearGradient id="Dégradé_sans_nom_9-81" x1="-380.05" y1="0.26" x2="-379.06" y2="0.26" xlink:href="#Dégradé_sans_nom_9"/></defs><g id="Calque_2" data-name="Calque 2"><g id="Calque_1-2" data-name="Calque 1"><path class="cls-1" d="M200.24,6.29c.29,0,.19.39.23.46C200,6.66,200.25,6.18,200.24,6.29Z"/><polygon class="cls-2" points="195.35 5.34 195.44 5.51 194.72 5.09 195.35 5.34"/><path class="cls-3" d="M190.78,5.35c.43-.71,1.66.11,2.47-.14l.13-.16.37.57A11.27,11.27,0,0,0,190.78,5.35Z"/><path class="cls-4" d="M188.35,6.89c.15-.27-.53-.24.56-.08l-.1.07A2.49,2.49,0,0,0,188.35,6.89Z"/><path class="cls-5" d="M188.81,6.88c.48,0-.31.23,0,0Z"/><path class="cls-6" d="M186.59,6.72l.63.25c-.13.16-.69.2-.48.32C186.09,7.15,186.22,7,186.59,6.72Z"/><path class="cls-7" d="M186,6.2l.33.1C186.26,6.37,186.17,6.39,186,6.2Z"/><path class="cls-8" d="M187,6.52l-.69-.22c.09-.11.1-.34.32.08C186.58,6.17,186.72,6.37,187,6.52Z"/><path class="cls-9" d="M187.41,6.41c.35-.15.81-.25.18-.5C188.8,6,188.62,6.51,187.41,6.41Z"/><path class="cls-10" d="M190.55,4.61,191,4.4l.41.24C191.23,4.52,190.52,4.83,190.55,4.61Z"/><path class="cls-11" d="M182.64,7.09c0-.15.21-.41.26-.6l.47.17C183.13,6.77,182.67,6.86,182.64,7.09Z"/><path class="cls-12" d="M182.9,6.49l-.7-.26C182.83,6.2,182.94,6.32,182.9,6.49Z"/><polygon class="cls-13" points="185.88 5.4 187.03 5.95 185.65 5.4 185.88 5.4"/><polygon class="cls-14" points="179.97 7.11 180.36 7.46 179.66 6.93 179.97 7.11"/><path class="cls-15" d="M178.19,7c.29.3-.4.5-.09.68a3.42,3.42,0,0,1-1.27-.53A1.82,1.82,0,0,0,178.19,7Z"/><path class="cls-16" d="M176.21,6.86a3.77,3.77,0,0,1,.62.33A2,2,0,0,1,176.21,6.86Z"/><path class="cls-17" d="M181,6.3a.84.84,0,0,1-.55.44l.27-.43Z"/><path class="cls-18" d="M180.74,6.3h0l-.59,0Z"/><path class="cls-19" d="M181.08,6.3H181S181.05,6.25,181.08,6.3Z"/><path class="cls-20" d="M184,5.79c-.41-.24-1.27-.49-.44-.86C183.89,5.22,183.42,5.43,184,5.79Z"/><path class="cls-21" d="M181.42,5.77l.74-.1c0,.11-.15.28.06.39Z"/><polygon class="cls-22" points="181.05 5.63 181.42 5.77 181.14 5.8 181.05 5.63"/><path class="cls-23" d="M177.49,6.46a2.5,2.5,0,0,0-1.07-.23,7,7,0,0,1,1.28-.13C177.76,6.24,177.94,6.48,177.49,6.46Z"/><path class="cls-24" d="M179.07,6.34l-.07,0S179.08,6.27,179.07,6.34Z"/><path class="cls-25" d="M172.51,6.23l.06-.07s0,0,0,.07Z"/><path class="cls-26" d="M177.77,6a.72.72,0,0,1,.69.16,4.43,4.43,0,0,0-.76-.08C177.67,6,177.67,6,177.77,6Z"/><path class="cls-27" d="M175.12,6.66a4.09,4.09,0,0,1,.56-.23C175.51,6.56,175.18,6.77,175.12,6.66Z"/><path class="cls-28" d="M178.89,6.44l.05,0C178.83,6.55,178.84,6.5,178.89,6.44Z"/><path class="cls-29" d="M178.89,6.44a1.82,1.82,0,0,1-.43-.26,2.66,2.66,0,0,1,.54.14A.63.63,0,0,0,178.89,6.44Z"/><path class="cls-30" d="M171.32,3.49c.06.4.9.76,1.63.34.71.3.24,1.6-.38,2.33,0-.18,0-.34-.76-.57.26-.22,1.63-.51,1-.86-1-.21-.79.14-1.27.35.4-.5-1.24-.72-1-1.45l.85.26C171.4,3.77,171.09,3.59,171.32,3.49Z"/><path class="cls-31" d="M174,6.12l.3,0a2.8,2.8,0,0,0-1,.54c-.51-.19-.61-.34-.65-.47l1.49-.06Z"/><path class="cls-32" d="M175.63,6.17c-.23-.43-1-.62-.52-1.08.89,0,.63.36,1.16.54-1.44-.1.41.24-.63.49a4.71,4.71,0,0,0,.78.11,5.33,5.33,0,0,0-.74.2l0,0h0c.07-.06.09-.09,0-.06h0a.46.46,0,0,0-.07-.16c-.41.09-.06.11.07.16s0,0,0,.07h0l-1.44-.24A5.54,5.54,0,0,1,175.63,6.17Z"/><path class="cls-33" d="M182.83,4a.12.12,0,0,0,0,.1C182.69,4.05,182.66,4,182.83,4Z"/><path class="cls-34" d="M182.24,4.27a.59.59,0,0,0,.53.18c.3-.13,0-.2,0-.35.2.12.71.31.07.52l-.1-.06c-.58.15-1.32.69-1.22.75A2.94,2.94,0,0,1,182.24,4.27Z"/><path class="cls-35" d="M178.9,5.11l-1.2-.22.61-.37,0,.23C179,4.66,178.81,4.93,178.9,5.11Z"/><polygon class="cls-36" points="172.37 6.45 172.53 6.9 171.84 6.26 172.37 6.45"/><polygon class="cls-37" points="170.82 6.39 170.88 6.79 170.47 6.55 170.82 6.39"/><path class="cls-38" d="M83.18,1.48l-.35-.11A1.83,1.83,0,0,1,83.18,1.48Z"/><path class="cls-39" d="M85.72,1.46l.06.19C85.66,1.54,85.62,1.46,85.72,1.46Z"/><path class="cls-40" d="M132.67,6.35c-.51.37-1.08.94-1,.5l.16-.44A1.41,1.41,0,0,0,132.67,6.35Z"/><path class="cls-41" d="M106.55,3.76l.15-.13.35.41Z"/><path class="cls-42" d="M106.19,2l-.67.28A3,3,0,0,1,106.19,2Z"/><path class="cls-43" d="M69.29,1,68.88.58C69.52.58,69.24.81,69.29,1Z"/><path class="cls-44" d="M154.91,6.23a4,4,0,0,1-1.1.27C154.34,6.25,154.77,5.87,154.91,6.23Z"/><path class="cls-45" d="M84.18,6.09c-.22-.08-.31-.17-.3-.27C84.1,5.9,84.22,6,84.18,6.09Z"/><path class="cls-46" d="M152.54,6.49l.23-.1a3.77,3.77,0,0,0,1,.11A1.19,1.19,0,0,1,152.54,6.49Z"/><path class="cls-47" d="M18.94,1.38l-.12.05C18.81,1.38,18.86,1.37,18.94,1.38Z"/><path class="cls-48" d="M4.27,5.76a3.52,3.52,0,0,0,.6,0A1.42,1.42,0,0,1,4.27,5.76Z"/><path class="cls-49" d="M164.57,6.58c.33,0,.05,0,0,0Z"/><path class="cls-50" d="M166.17,4.87a.28.28,0,0,1-.13-.21A.36.36,0,0,0,166.17,4.87Z"/><path class="cls-51" d="M149.25,3.79h0C149.32,3.71,149.31,3.73,149.25,3.79Z"/><path class="cls-52" d="M165.06,6.39a2.1,2.1,0,0,1-.42.12A2.71,2.71,0,0,1,165.06,6.39Z"/><path class="cls-53" d="M165,6.59l.29,0C165.33,6.62,165.29,6.67,165,6.59Z"/><path class="cls-54" d="M164.11,6.56a1.84,1.84,0,0,0,.53,0c-.06,0-.09.06-.07.07Z"/><path class="cls-55" d="M45.92,2.54l-.07,0C45.51,2.4,45.66,2.43,45.92,2.54Z"/><path class="cls-56" d="M124.1,1.84l0,0,0,0Z"/><path class="cls-57" d="M122.92,1.52a.94.94,0,0,0,1.17.36l-.39,1.25Z"/><path class="cls-58" d="M78.07,1.44C77,2,76,1.29,75.36.94c-.41.19.33,1-.85.79-1.68-.26.31-1-.69-1.15l-.73.7c-1.29-.53-2.25-.05-3.33,0a.73.73,0,0,1-.43-.21c-1.15.3-2.42-.69-3.29-.46.21.15-.5.45-.6.62L63.87.83c.69.19.66.59.79,1a7.21,7.21,0,0,1-1-.31c.2.14.41.29.15.47L62.11,1.3a1,1,0,0,1,.44-.11,3.62,3.62,0,0,0-1.89.07c.05.15.26.3.31.45.49-.44.77-.06,1,.24-1.14-.07-.28.1-.83.39-.8,0-1.13-.55-.92-.89a2.8,2.8,0,0,1-2.12-.15l.18.55-.85-.17.68.67c-1.63.37-.29-.94-2.11-.63V2.2c-.7-.19-.94-1-1.48-.42-.67-.29,1.16-.68-.43-.78a3.39,3.39,0,0,1-1.34.53c-.51-.22.39-.58.71-.51C51.09.79,52,2.67,49.86,2c.74-.35-.61-.94,1.13-.92-.83-.29-1.64.7-2.5.17l.56.62a2.12,2.12,0,0,1-.83-.29l.07.47c-1.06-.83-2,.4-2.62-.69.44.86-.8,0-1.22.28.88.61,2.52,0,2.64.78-.41.24-.78-.15-1.17.08A2.28,2.28,0,0,1,46.7,3c-1.35.45-2.12-.48-2.94-.68l1.45.18c-.12-.79-.65-.14-1.06-.76-.72.43-1.29-.19-1.88.07.16,0,.17.08.32.07-1.57,0-2,1.27-2.64,1.3s-1.78-.33-1.36-.67c-.5-.22,2.1.24,1.19-.79-.9,1.19-1.85-.44-3.81.37.86.42-.51.67.26,1a1.82,1.82,0,0,1-1.38-.61l-.29.37c-1.22-.83-.28-.74-2.13-1.18.62.29-.75.54-.27.8a2.6,2.6,0,0,1-1.39-.31l.07,0C29,2,29.3,2.7,27.6,2.29l.17-.23c-2.23-.6-5.06-.21-7.37-.49l.81-.18c-.24.11-1.55-.36-2.27,0a2,2,0,0,0,.52.09.88.88,0,0,1-.85.69l-.22-.38-.22.29c-.85,0,.25-.54-.6-.54-.49,1.1-3.65.15-4.38,1.11-.57-.79,1.61-.11,1-.83a2,2,0,0,1-.92.33l.19-.47c-2.56.27-3.54.67-5.82.57l.09.1c-.81.19-1.25.1-1.61-.31-.17.22.41.34.1.53-1.43-1.21-2.86.89-3.74,0,.12,1-1.75,1.87-1,2.62L.89,5.11c.2.63,1.84,0,2.18.67l1.85-.66c-.06.24.24.59,0,.67.45,0,.85,0,.26.39,4.41-1.61,9,0,13.31-.91.29.06.12.28,0,.43.8-.61.76.32,1.2.4l1.18-.87c.47.26.1.53.14.7,2.22.18,4.38-.68,6.18-.16.57-.32-.14-.71.62-.82-1,.91,2.2.43,1.54,1.07.73-1,2.72-.21,2.39-1.55.91-.08.75.57.49.69a5.21,5.21,0,0,1,2.75.37c.58-.32,4.8.33,5.73-.68-.64.65,0,.34.66.62l-.55.58L42.16,6c.29,0,.36,0,.36,0,.24,0-.05-.33.54-.48.94,0,1,.28,1.51.58l-.15.08.64.06c.47,0-1.66-.58-.13-.87,0,.16.93.92,1.34.5-.79,0-.69-.37-.4-.54l1.1,0L46.61,6c3.14,0,6.41-.56,9.77-.51-.05-.64,2.38,0,2.07-1l-.13.09c-.82-.09.24-.74.91-.63-.7.3,1.26.94-.44,1.08l1.32.44c.73,1.81,3.51-.15,5.51.43a.31.31,0,0,1-.19-.22c1.77.58,4-.48,4.39-.2L70,5a4,4,0,0,0,3.51.52c0-.08-.23-.23.05-.33a2.43,2.43,0,0,0,2.12.63l0-.16,1.93.09c0-1.53,3.33.93,3.91-.73.38.45,1.8.59,2.43.8,0-.06,0-.13.15-.2.74.82,2.15-.26,3-.16.54.19.31.45.07.71,1.07-.65,2.94.73,3.33.45.78-.06.29-.58.5-.92,1.16.14-.19,1.38,1.36.77-.18-.06-.51-.12-.38-.21.59-.13,1.65-1.88,2.24-1.53L93.73,5c1.08.4,2.56-1.24,2.74-.21l-.11.48c1.87-.63.8.19,2.69-.37l0-.08c.83.1,1.27-.5,1.68.27l-.29.1a15.6,15.6,0,0,0,2.16,0c.12.07.63.19.77,0,0,.64,2.42.3,2.88.26-.82-.09-.43-.37-.2-.63.49.53.83.58,1.5.2.09.8.23,1.65,1.56,1.7-.21-.13-.53-.19-.4-.36s.44,0,.55.08c.13-.16-.3-.29-.15-.57.9.76,1.55,0,2.85.33-.41-.24-.05-.4.09-.68.11.91,1.78-.78,1.29.39,2.55-.7,6.46-.06,7.46-.81.26-.32,1,.21,1.42.22l-.06-.4c1.24.72,1,.27,2.42,1-.6-.48-.35-.69.26-1.07l1,.83.19-.61a1.79,1.79,0,0,0,1.33,0c-.22,0-.1-.06-.08-.17.22.85,2,.75,2.28,1.16.45-.83,1.2.21,1.53-.57a2.37,2.37,0,0,0,.55.29c-.22.36-.3.77.11.59h.09l.18-.48a5.4,5.4,0,0,0,1.1.18,1.89,1.89,0,0,0-.42.24,4.66,4.66,0,0,0,.5-.24h.15l-.09,0a1,1,0,0,1,.87,0c1.44-.74,3.21,1,4.79,0-.23.1-.57.14-.66,0,1.33,0,2.65-.64,3.49-.27l-.06.45a10.45,10.45,0,0,0,2.51.32l0,.5c1.15-.18,3.59.64,4.29-.41.28.4,1.58-.12,2.23,0l.17-.39a4.47,4.47,0,0,1,1.87.12c1.71-.81,3.3,0,4.8-.06l0-.12,1.52.28c-.4-.35.3.24.76.15a2.66,2.66,0,0,0,1.84-.17l1,0c-1.08-.26.07-.56.13-1l.62.36c.25-.21-.4-.35.06-.44.42.24,1.64.22,2,.69a.82.82,0,0,1-.4.3c-.05,0-.05,0,0,0l-.05,0,.06,0a1,1,0,0,1,.17.18c.77-.1.48.08.46.29.87-.71,1.36-.23,2-1-.91.92,2,0,1.44.89.65-.71.45,0,.87-.64-.92.19-1.84-.46-2.58-.77l.73-.42c-.47-.81-1.63.29-2.06,0,.29.19.94,0,1-.18l-.2.62a4.06,4.06,0,0,1-2.59-.54c.69-.2-.85-.37-.34-.8l.55.07c.25-.21-.28-.4-.59-.58-1.74.44-4.91,0-5.53.54a1.76,1.76,0,0,1,1.31.16l-.81.25c.66,0,1.18-.52,2.16-.32-.17.39.54.92-.2,1.46-1.87.61-1.54-1-3.78-.87-.21-.12.47.64-.73.43-1.51-.39-2.61-1.28-2.61-2.12.64.25,1.9.74,2.1.13-.63-.25-1.73-.4-1.78-.79-.66.71,1.19.21.33.8a1.53,1.53,0,0,1-.84-.37c.3.29-.4.49-.53.66-1.44,0-2.27.31-3.82.37-.08.11-.25.33-.2.51-.76-.2-1.83-1.26-1.55-1.7-.89,0-.94.31-1.69.11,1.2-.63-.23.11-.36-.57-.77-.09-.27.33-.63.48-.12-.07-.43-.3-.45-.48-.48.52.92,1.35.36,1.95a11.42,11.42,0,0,1-2.16,1.11,5.27,5.27,0,0,1,.29-3.71c-.06-.4-.73.42-1.06.46-1,.65-1.5-.5-2.31-.25l.62.36c-.13.17-1.33,0-1.52-.27,0,.22.62,1.15.24,1.42-1.46.12-2.84-1.12-2.75-1.79l2.24.69c.08-.56-1.59-.56-1.5-1.23l-2.06.2c.26,0,1.05.18.74.48-.89,0-.46.1-1.05.36A23,23,0,0,1,138,5.32L136.92,5l-.26.33c-1.39-.45-2.64-2.64-3-3.22-.8.15-.52,1.34-.33,1.57-1.57.06-1.55-1.69-3.13-1.52l.59-.26c-.37-.11-1.73.13-1.58-.09-.31.32-.6,1.07-.25,1.27l-1.4-1.12c.2.12.07,1.08.16,1.25-.57,0-1-1.11-.61-1.27-1.1.69-.82.32-1.71,1.13-.33-.07,0-1,.26-1.12a2.16,2.16,0,0,0-1.51,0c1.21.42.33,2.16.56,2.89l-2.61-2.86a6,6,0,0,1,.28,1.19c-.22-.85-3.21-1-4.67-.84h.22c.29.29-1,.53-1.48.23.09.17.21.12.43.12-1,.65-1.27-1.28-2.27-.53.91-.08,1.08.26,1,.6-.74-.31-2.46,0-2.1-1-.47.21-.9.09-.86.59l-1.81-.59c.13.1.25.39-.28.46,1-.13,2,.81,2.54.15,0,.62-.36,1,.13,1.47-2-.29-3-1.35-4.28-2.07l-1.74.45-.07-.28-.3.71c-.22-.16-.35-.3-.4-.24s0,.16.1.27a1,1,0,0,1-.43-.18c-.07.38.24.81.56,1.2l.48-.4c.34.36.58.73.11,1L107.05,4c.21.27.35.49.19.59l-1.33-.34a6.21,6.21,0,0,0,.64-.53c-.83-.47-1.77-1-1-1.52l-1,.42a8.83,8.83,0,0,0-2.42-1.08c-.08.24.3.45,0,.63-1-.8-2.56.94-2.79.23-.85-.17-.35-.61-.89-.81,0,.08.07.24-.08.25l-.65-.51c-.25.18.59.35-.13.57a5.24,5.24,0,0,0-3-.4c-1.47-.12.63-1-.62-.91-.18.42-.34.91-1.12,1-.4-.28-.35-.61-1-.79l0,.64c-.65,0-1.16-.15-1.16.33a1.37,1.37,0,0,0-1.17-.12c-1-.34.72-1.3,1-1.55-1,.48-1.63.2-2.18,1l.85.18c-1.81.79-1.72-.91-2.56.45.63-.05,1.37.29,1,.64L86.69,2c-.1.17.52.12.11.31a6.7,6.7,0,0,1-1-.68v0l-1.62-.11c.31,0,.38.21.07.24l-1.06-.34c.32.16,0,.36-.49.47-1.37.19-1.1-1.44-2.16-.79.15,0,.18.06.34.05l-.55.29C80.2.14,77.09,1.36,77,0c-.78.55,0,.33,1,1l-.83.39A4.14,4.14,0,0,1,78.07,1.44Zm10.54.1c.18-.28.66,0,.9.13C89.1,1.83,88.88,2.09,88.61,1.54Zm19,1.39c.31-.18.59-.26.77-.1A1.26,1.26,0,0,1,107.61,2.93Zm53.32,3.24,0,0C160.59,6.28,160.4,6.35,160.93,6.17Zm.59-.08c.28,0,.53,0,.61.09.05-.06.05-.13-.06-.2C161.74,5.87,161.6,6,161.52,6.09ZM42.62,5.66l-.22.13C42.26,5.65,42.13,5.53,42.62,5.66Z"/><path class="cls-59" d="M106.24,2.17a.44.44,0,0,0-.1.26C106,2.35,106,2.26,106.24,2.17Z"/><path class="cls-60" d="M69.37,1.1h0a.36.36,0,0,1,0-.09Z"/><path class="cls-61" d="M144.81,1.89a.92.92,0,0,0-.44.25C144.36,2,144.46,1.92,144.81,1.89Z"/><path class="cls-62" d="M168,6.8l-.72-.12a1.16,1.16,0,0,0,.65-.16C167.89,6.63,167.75,6.79,168,6.8Z"/><path class="cls-63" d="M174.17,3.82c.11.05.23,0,.33.06l0,.23C174,4.09,173.71,3.91,174.17,3.82Z"/><path class="cls-64" d="M168.64,5.2c.06-.41.5-.27,1-.2h-.09C169.7,5.57,169.17,5.38,168.64,5.2Z"/><path class="cls-65" d="M169.76,5a1.77,1.77,0,0,0,.46,0C170.28,5.26,170,5.08,169.76,5Z"/><path class="cls-66" d="M163.49,6.25c.23-.1.14.52.28.35C164,7.12,162.19,6,163.49,6.25Z"/><polygon class="cls-67" points="169.04 3.86 168.86 4.36 168.58 3.96 169.04 3.86"/><path class="cls-68" d="M165.1,4.23l.79-.14c0,.08.09.13.22.17C165.62,4.28,165.08,4.38,165.1,4.23Z"/><path class="cls-69" d="M166.11,4.26a1.35,1.35,0,0,1,.64.08A2.66,2.66,0,0,1,166.11,4.26Z"/><polygon class="cls-70" points="167.95 3.71 167.72 3.81 167.15 3.85 167.95 3.71"/><path class="cls-71" d="M156.51,4.33l-.88-.15c-.08-.17.15-.28.48-.21S156.64,4.16,156.51,4.33Z"/><path class="cls-72" d="M159.14,3c-.23.11-.25.22-.38.38l0-.62Z"/><path class="cls-73" d="M156.6,2.81c-.09-.17-1.26-.5-.16-.46C156.53,2.52,157.4,2.67,156.6,2.81Z"/><polygon class="cls-74" points="143.46 3.59 143.68 3.6 143.65 4.62 143.46 3.59"/><path class="cls-75" d="M131.88,1.16c1-.25.25.63,1.18.32.24.24-.76.25-.51.46C131.92,1.68,131.6,1.83,131.88,1.16Z"/><path class="cls-76" d="M132.55,1.94l.31.15A1,1,0,0,1,132.55,1.94Z"/><polygon class="cls-77" points="1.83 6.31 1.17 6.52 1.6 6.18 1.83 6.31"/><path class="cls-78" d="M.56,5.55.4,6.2,0,5.61C.15,5.64.44,5.7.56,5.55Z"/><path class="cls-79" d="M91.35.36l.05.16c-.1.17-.26.18-.57.21Z"/><polygon class="cls-80" points="82.34 0.85 82.5 0.83 82.21 1.42 82.34 0.85"/><path class="cls-81" d="M74.78.1c.31,0,.67.11,1,.08C75.09.08,74.69.83,74.78.1Z"/></g></g></svg>