<svg xmlns="http://www.w3.org/2000/svg" xmlns:xlink="http://www.w3.org/1999/xlink" viewBox="0 0 200.47 7.72"><defs><style>.cls-1{fill:url(#Dégradé_sans_nom_9);}.cls-2{fill:url(#Dégradé_sans_nom_9-2);}.cls-3{fill:url(#Dégradé_sans_nom_9-3);}.cls-4{fill:url(#Dégradé_sans_nom_9-4);}.cls-5{fill:url(#Dégradé_sans_nom_9-5);}.cls-6{fill:url(#Dégradé_sans_nom_9-6);}.cls-7{fill:url(#Dégradé_sans_nom_9-7);}.cls-8{fill:url(#Dégradé_sans_nom_9-8);}.cls-9{fill:url(#Dégradé_sans_nom_9-9);}.cls-10{fill:url(#Dégradé_sans_nom_9-10);}.cls-11{fill:url(#Dégradé_sans_nom_9-11);}.cls-12{fill:url(#Dégradé_sans_nom_9-12);}.cls-13{fill:url(#Dégradé_sans_nom_9-13);}.cls-14{fill:url(#Dégradé_sans_nom_9-14);}.cls-15{fill:url(#Dégradé_sans_nom_9-15);}.cls-16{fill:url(#Dégradé_sans_nom_9-16);}.cls-17{fill:url(#Dégradé_sans_nom_9-17);}.cls-18{fill:url(#Dégradé_sans_nom_9-18);}.cls-19{fill:url(#Dégradé_sans_nom_9-19);}.cls-20{fill:url(#Dégradé_sans_nom_9-20);}.cls-21{fill:url(#Dégradé_sans_nom_9-21);}.cls-22{fill:url(#Dégradé_sans_nom_9-22);}.cls-23{fill:url(#Dégradé_sans_nom_9-23);}.cls-24{fill:url(#Dégradé_sans_nom_9-24);}.cls-25{fill:url(#Dégradé_sans_nom_9-25);}.cls-26{fill:url(#Dégradé_sans_nom_9-26);}.cls-27{fill:url(#Dégradé_sans_nom_9-27);}.cls-28{fill:url(#Dégradé_sans_nom_9-28);}.cls-29{fill:url(#Dégradé_sans_nom_9-29);}.cls-30{fill:url(#Dégradé_sans_nom_9-30);}.cls-31{fill:url(#Dégradé_sans_nom_9-31);}.cls-32{fill:url(#Dégradé_sans_nom_9-32);}.cls-33{fill:url(#Dégradé_sans_nom_9-33);}.cls-34{fill:url(#Dégradé_sans_nom_9-34);}.cls-35{fill:url(#Dégradé_sans_nom_9-35);}.cls-36{fill:url(#Dégradé_sans_nom_9-36);}.cls-37{fill:url(#Dégradé_sans_nom_9-37);}.cls-38{fill:url(#Dégradé_sans_nom_9-38);}.cls-39{fill:url(#Dégradé_sans_nom_9-39);}.cls-40{fill:url(#Dégradé_sans_nom_9-40);}.cls-41{fill:url(#Dégradé_sans_nom_9-41);}.cls-42{fill:url(#Dégradé_sans_nom_9-42);}.cls-43{fill:url(#Dégradé_sans_nom_9-43);}.cls-44{fill:url(#Dégradé_sans_nom_9-44);}.cls-45{fill:url(#Dégradé_sans_nom_9-45);}.cls-46{fill:url(#Dégradé_sans_nom_9-46);}.cls-47{fill:url(#Dégradé_sans_nom_9-47);}.cls-48{fill:url(#Dégradé_sans_nom_9-48);}.cls-49{fill:url(#Dégradé_sans_nom_9-49);}.cls-50{fill:url(#Dégradé_sans_nom_9-50);}.cls-51{fill:url(#Dégradé_sans_nom_9-51);}.cls-52{fill:url(#Dégradé_sans_nom_9-52);}.cls-53{fill:url(#Dégradé_sans_nom_9-53);}.cls-54{fill:url(#Dégradé_sans_nom_9-54);}.cls-55{fill:url(#Dégradé_sans_nom_9-55);}.cls-56{fill:url(#Dégradé_sans_nom_9-56);}.cls-57{fill:url(#Dégradé_sans_nom_9-57);}.cls-58{fill:url(#Dégradé_sans_nom_9-58);}.cls-59{fill:url(#Dégradé_sans_nom_9-59);}.cls-60{fill:url(#Dégradé_sans_nom_9-60);}.cls-61{fill:url(#Dégradé_sans_nom_9-61);}.cls-62{fill:url(#Dégradé_sans_nom_9-62);}.cls-63{fill:url(#Dégradé_sans_nom_9-63);}.cls-64{fill:url(#Dégradé_sans_nom_9-64);}.cls-65{fill:url(#Dégradé_sans_nom_9-65);}.cls-66{fill:url(#Dégradé_sans_nom_9-66);}.cls-67{fill:url(#Dégradé_sans_nom_9-67);}.cls-68{fill:url(#Dégradé_sans_nom_9-68);}.cls-69{fill:url(#Dégradé_sans_nom_9-69);}.cls-70{fill:url(#Dégradé_sans_nom_9-70);}.cls-71{fill:url(#Dégradé_sans_nom_9-71);}.cls-72{fill:url(#Dégradé_sans_nom_9-72);}.cls-73{fill:url(#Dégradé_sans_nom_9-73);}.cls-74{fill:url(#Dégradé_sans_nom_9-74);}.cls-75{fill:url(#Dégradé_sans_nom_9-75);}.cls-76{fill:url(#Dégradé_sans_nom_9-76);}.cls-77{fill:url(#Dégradé_sans_nom_9-77);}.cls-78{fill:url(#Dégradé_sans_nom_9-78);}.cls-79{fill:url(#Dégradé_sans_nom_9-79);}.cls-80{fill:url(#Dégradé_sans_nom_9-80);}.cls-81{fill:url(#Dégradé_sans_nom_9-81);}</style><linearGradient id="Dégradé_sans_nom_9" y1="6.51" x2="0.3" y2="6.51" gradientUnits="userSpaceOnUse"><stop offset="0" stop-color="#e6332a"/><stop offset="1" stop-color="#f9b233"/></linearGradient><linearGradient id="Dégradé_sans_nom_9-2" x1="5.03" y1="5.3" x2="5.75" y2="5.3" xlink:href="#Dégradé_sans_nom_9"/><linearGradient id="Dégradé_sans_nom_9-3" x1="6.72" y1="5.34" x2="9.69" y2="5.34" xlink:href="#Dégradé_sans_nom_9"/><linearGradient id="Dégradé_sans_nom_9-4" x1="11.56" y1="6.79" x2="12.2" y2="6.79" xlink:href="#Dégradé_sans_nom_9"/><linearGradient id="Dégradé_sans_nom_9-5" x1="11.5" y1="6.93" x2="11.74" y2="6.93" xlink:href="#Dégradé_sans_nom_9"/><linearGradient id="Dégradé_sans_nom_9-6" x1="13.25" y1="7" x2="14.19" y2="7" xlink:href="#Dégradé_sans_nom_9"/><linearGradient id="Dégradé_sans_nom_9-7" x1="14.15" y1="6.27" x2="14.48" y2="6.27" xlink:href="#Dégradé_sans_nom_9"/><linearGradient id="Dégradé_sans_nom_9-8" x1="13.46" y1="6.33" x2="14.15" y2="6.33" xlink:href="#Dégradé_sans_nom_9"/><linearGradient id="Dégradé_sans_nom_9-9" x1="12.06" y1="6.17" x2="13.06" y2="6.17" xlink:href="#Dégradé_sans_nom_9"/><linearGradient id="Dégradé_sans_nom_9-10" x1="9.04" y1="4.55" x2="9.92" y2="4.55" xlink:href="#Dégradé_sans_nom_9"/><linearGradient id="Dégradé_sans_nom_9-11" x1="17.1" y1="6.79" x2="17.83" y2="6.79" xlink:href="#Dégradé_sans_nom_9"/><linearGradient id="Dégradé_sans_nom_9-12" x1="17.56" y1="6.36" x2="18.27" y2="6.36" xlink:href="#Dégradé_sans_nom_9"/><linearGradient id="Dégradé_sans_nom_9-13" x1="13.45" y1="5.67" x2="14.82" y2="5.67" xlink:href="#Dégradé_sans_nom_9"/><linearGradient id="Dégradé_sans_nom_9-14" x1="20.11" y1="7.19" x2="20.82" y2="7.19" xlink:href="#Dégradé_sans_nom_9"/><linearGradient id="Dégradé_sans_nom_9-15" x1="22.21" y1="7.38" x2="23.64" y2="7.38" xlink:href="#Dégradé_sans_nom_9"/><linearGradient id="Dégradé_sans_nom_9-16" x1="23.64" y1="7.03" x2="24.26" y2="7.03" xlink:href="#Dégradé_sans_nom_9"/><linearGradient id="Dégradé_sans_nom_9-17" x1="19.46" y1="6.52" x2="20.01" y2="6.52" xlink:href="#Dégradé_sans_nom_9"/><linearGradient id="Dégradé_sans_nom_9-18" x1="19.73" y1="6.31" x2="20.33" y2="6.31" xlink:href="#Dégradé_sans_nom_9"/><linearGradient id="Dégradé_sans_nom_9-19" x1="19.39" y1="6.28" x2="19.46" y2="6.28" xlink:href="#Dégradé_sans_nom_9"/><linearGradient id="Dégradé_sans_nom_9-20" x1="16.43" y1="5.36" x2="17.22" y2="5.36" xlink:href="#Dégradé_sans_nom_9"/><linearGradient id="Dégradé_sans_nom_9-21" x1="18.25" y1="5.87" x2="19.05" y2="5.87" xlink:href="#Dégradé_sans_nom_9"/><linearGradient id="Dégradé_sans_nom_9-22" x1="19.05" y1="5.72" x2="19.42" y2="5.72" xlink:href="#Dégradé_sans_nom_9"/><linearGradient id="Dégradé_sans_nom_9-23" x1="22.68" y1="6.28" x2="24.05" y2="6.28" xlink:href="#Dégradé_sans_nom_9"/><linearGradient id="Dégradé_sans_nom_9-24" x1="21.4" y1="6.32" x2="21.47" y2="6.32" xlink:href="#Dégradé_sans_nom_9"/><linearGradient id="Dégradé_sans_nom_9-25" x1="27.89" y1="6.2" x2="27.96" y2="6.2" xlink:href="#Dégradé_sans_nom_9"/><linearGradient id="Dégradé_sans_nom_9-26" x1="22.01" y1="6.09" x2="22.79" y2="6.09" xlink:href="#Dégradé_sans_nom_9"/><linearGradient id="Dégradé_sans_nom_9-27" x1="24.79" y1="6.56" x2="25.35" y2="6.56" xlink:href="#Dégradé_sans_nom_9"/><linearGradient id="Dégradé_sans_nom_9-28" x1="21.53" y1="6.47" x2="21.61" y2="6.47" xlink:href="#Dégradé_sans_nom_9"/><linearGradient id="Dégradé_sans_nom_9-29" x1="21.47" y1="6.31" x2="22.01" y2="6.31" xlink:href="#Dégradé_sans_nom_9"/><linearGradient id="Dégradé_sans_nom_9-30" x1="27.16" y1="4.82" x2="29.96" y2="4.82" xlink:href="#Dégradé_sans_nom_9"/><linearGradient id="Dégradé_sans_nom_9-31" x1="26.2" y1="6.41" x2="27.89" y2="6.41" xlink:href="#Dégradé_sans_nom_9"/><linearGradient id="Dégradé_sans_nom_9-32" x1="24.05" y1="5.76" x2="26.2" y2="5.76" xlink:href="#Dégradé_sans_nom_9"/><linearGradient id="Dégradé_sans_nom_9-33" x1="17.64" y1="4.05" x2="17.76" y2="4.05" xlink:href="#Dégradé_sans_nom_9"/><linearGradient id="Dégradé_sans_nom_9-34" x1="17.3" y1="4.71" x2="18.94" y2="4.71" xlink:href="#Dégradé_sans_nom_9"/><linearGradient id="Dégradé_sans_nom_9-35" x1="21.57" y1="4.81" x2="22.77" y2="4.81" xlink:href="#Dégradé_sans_nom_9"/><linearGradient id="Dégradé_sans_nom_9-36" x1="27.94" y1="6.58" x2="28.63" y2="6.58" xlink:href="#Dégradé_sans_nom_9"/><linearGradient id="Dégradé_sans_nom_9-37" x1="29.6" y1="6.59" x2="30.01" y2="6.59" xlink:href="#Dégradé_sans_nom_9"/><linearGradient id="Dégradé_sans_nom_9-38" x1="117.29" y1="1.43" x2="117.64" y2="1.43" xlink:href="#Dégradé_sans_nom_9"/><linearGradient id="Dégradé_sans_nom_9-39" x1="114.69" y1="1.55" x2="114.81" y2="1.55" xlink:href="#Dégradé_sans_nom_9"/><linearGradient id="Dégradé_sans_nom_9-40" x1="67.8" y1="6.68" x2="68.82" y2="6.68" xlink:href="#Dégradé_sans_nom_9"/><linearGradient id="Dégradé_sans_nom_9-41" x1="93.42" y1="3.83" x2="93.92" y2="3.83" xlink:href="#Dégradé_sans_nom_9"/><linearGradient id="Dégradé_sans_nom_9-42" x1="94.28" y1="2.1" x2="94.95" y2="2.1" xlink:href="#Dégradé_sans_nom_9"/><linearGradient id="Dégradé_sans_nom_9-43" x1="131.16" y1="0.8" x2="131.59" y2="0.8" xlink:href="#Dégradé_sans_nom_9"/><linearGradient id="Dégradé_sans_nom_9-44" x1="45.56" y1="6.29" x2="46.66" y2="6.29" xlink:href="#Dégradé_sans_nom_9"/><linearGradient id="Dégradé_sans_nom_9-45" x1="116.28" y1="5.96" x2="116.59" y2="5.96" xlink:href="#Dégradé_sans_nom_9"/><linearGradient id="Dégradé_sans_nom_9-46" x1="46.66" y1="6.54" x2="47.94" y2="6.54" xlink:href="#Dégradé_sans_nom_9"/><linearGradient id="Dégradé_sans_nom_9-47" x1="181.53" y1="1.41" x2="181.65" y2="1.41" xlink:href="#Dégradé_sans_nom_9"/><linearGradient id="Dégradé_sans_nom_9-48" x1="195.6" y1="5.79" x2="196.2" y2="5.79" xlink:href="#Dégradé_sans_nom_9"/><linearGradient id="Dégradé_sans_nom_9-49" x1="35.74" y1="6.6" x2="35.9" y2="6.6" xlink:href="#Dégradé_sans_nom_9"/><linearGradient id="Dégradé_sans_nom_9-50" x1="34.3" y1="4.76" x2="34.43" y2="4.76" xlink:href="#Dégradé_sans_nom_9"/><linearGradient id="Dégradé_sans_nom_9-51" x1="51.17" y1="3.77" x2="51.24" y2="3.77" xlink:href="#Dégradé_sans_nom_9"/><linearGradient id="Dégradé_sans_nom_9-52" x1="35.41" y1="6.45" x2="35.83" y2="6.45" xlink:href="#Dégradé_sans_nom_9"/><linearGradient id="Dégradé_sans_nom_9-53" x1="35.17" y1="6.59" x2="35.47" y2="6.59" xlink:href="#Dégradé_sans_nom_9"/><linearGradient id="Dégradé_sans_nom_9-54" x1="35.83" y1="6.55" x2="36.36" y2="6.55" xlink:href="#Dégradé_sans_nom_9"/><linearGradient id="Dégradé_sans_nom_9-55" x1="154.55" y1="2.52" x2="154.82" y2="2.52" xlink:href="#Dégradé_sans_nom_9"/><linearGradient id="Dégradé_sans_nom_9-56" x1="76.33" y1="1.86" x2="76.38" y2="1.86" xlink:href="#Dégradé_sans_nom_9"/><linearGradient id="Dégradé_sans_nom_9-57" x1="76.38" y1="2.33" x2="77.55" y2="2.33" xlink:href="#Dégradé_sans_nom_9"/><linearGradient id="Dégradé_sans_nom_9-58" x1="30.39" y1="3.59" x2="199.58" y2="3.59" xlink:href="#Dégradé_sans_nom_9"/><linearGradient id="Dégradé_sans_nom_9-59" x1="94.23" y1="2.3" x2="94.39" y2="2.3" xlink:href="#Dégradé_sans_nom_9"/><linearGradient id="Dégradé_sans_nom_9-60" x1="131.1" y1="1.07" x2="131.18" y2="1.07" xlink:href="#Dégradé_sans_nom_9"/><linearGradient id="Dégradé_sans_nom_9-61" x1="55.66" y1="2.02" x2="56.1" y2="2.02" xlink:href="#Dégradé_sans_nom_9"/><linearGradient id="Dégradé_sans_nom_9-62" x1="32.49" y1="6.66" x2="33.21" y2="6.66" xlink:href="#Dégradé_sans_nom_9"/><linearGradient id="Dégradé_sans_nom_9-63" x1="25.97" y1="3.96" x2="26.52" y2="3.96" xlink:href="#Dégradé_sans_nom_9"/><linearGradient id="Dégradé_sans_nom_9-64" x1="30.83" y1="5.15" x2="31.83" y2="5.15" xlink:href="#Dégradé_sans_nom_9"/><linearGradient id="Dégradé_sans_nom_9-65" x1="30.24" y1="5.08" x2="30.71" y2="5.08" xlink:href="#Dégradé_sans_nom_9"/><linearGradient id="Dégradé_sans_nom_9-66" x1="36.67" y1="6.47" x2="37.45" y2="6.47" xlink:href="#Dégradé_sans_nom_9"/><linearGradient id="Dégradé_sans_nom_9-67" x1="31.43" y1="4.11" x2="31.89" y2="4.11" xlink:href="#Dégradé_sans_nom_9"/><linearGradient id="Dégradé_sans_nom_9-68" x1="34.36" y1="4.2" x2="35.38" y2="4.2" xlink:href="#Dégradé_sans_nom_9"/><linearGradient id="Dégradé_sans_nom_9-69" x1="33.72" y1="4.3" x2="34.36" y2="4.3" xlink:href="#Dégradé_sans_nom_9"/><linearGradient id="Dégradé_sans_nom_9-70" x1="32.52" y1="3.78" x2="33.32" y2="3.78" xlink:href="#Dégradé_sans_nom_9"/><linearGradient id="Dégradé_sans_nom_9-71" x1="43.93" y1="4.14" x2="44.85" y2="4.14" xlink:href="#Dégradé_sans_nom_9"/><linearGradient id="Dégradé_sans_nom_9-72" x1="41.33" y1="3.02" x2="41.74" y2="3.02" xlink:href="#Dégradé_sans_nom_9"/><linearGradient id="Dégradé_sans_nom_9-73" x1="43.53" y1="2.58" x2="44.5" y2="2.58" xlink:href="#Dégradé_sans_nom_9"/><linearGradient id="Dégradé_sans_nom_9-74" x1="56.79" y1="4.11" x2="57.01" y2="4.11" xlink:href="#Dégradé_sans_nom_9"/><linearGradient id="Dégradé_sans_nom_9-75" x1="67.37" y1="1.53" x2="68.69" y2="1.53" xlink:href="#Dégradé_sans_nom_9"/><linearGradient id="Dégradé_sans_nom_9-76" x1="67.61" y1="2.01" x2="67.92" y2="2.01" xlink:href="#Dégradé_sans_nom_9"/><linearGradient id="Dégradé_sans_nom_9-77" x1="198.64" y1="6.35" x2="199.3" y2="6.35" xlink:href="#Dégradé_sans_nom_9"/><linearGradient id="Dégradé_sans_nom_9-78" x1="199.91" y1="5.88" x2="200.47" y2="5.88" xlink:href="#Dégradé_sans_nom_9"/><linearGradient id="Dégradé_sans_nom_9-79" x1="109.07" y1="0.54" x2="109.64" y2="0.54" xlink:href="#Dégradé_sans_nom_9"/><linearGradient id="Dégradé_sans_nom_9-80" x1="117.97" y1="1.13" x2="118.26" y2="1.13" xlink:href="#Dégradé_sans_nom_9"/><linearGradient id="Dégradé_sans_nom_9-81" x1="124.71" y1="0.26" x2="125.7" y2="0.26" xlink:href="#Dégradé_sans_nom_9"/></defs><g id="Calque_2" data-name="Calque 2"><g id="Calque_1-2" data-name="Calque 1"><path class="cls-1" d="M.23,6.29c-.29,0-.19.39-.23.46C.5,6.66.22,6.18.23,6.29Z"/><polygon class="cls-2" points="5.12 5.34 5.03 5.51 5.75 5.09 5.12 5.34"/><path class="cls-3" d="M9.69,5.35c-.43-.71-1.66.11-2.47-.14l-.13-.16-.37.57A11.27,11.27,0,0,1,9.69,5.35Z"/><path class="cls-4" d="M12.12,6.89c-.15-.27.53-.24-.56-.08l.1.07A2.49,2.49,0,0,1,12.12,6.89Z"/><path class="cls-5" d="M11.66,6.88c-.48,0,.31.23,0,0Z"/><path class="cls-6" d="M13.88,6.72,13.25,7c.13.16.69.2.48.32C14.39,7.15,14.25,7,13.88,6.72Z"/><path class="cls-7" d="M14.48,6.2l-.33.1C14.21,6.37,14.3,6.39,14.48,6.2Z"/><path class="cls-8" d="M13.46,6.52l.69-.22c-.09-.11-.1-.34-.32.08C13.89,6.17,13.75,6.37,13.46,6.52Z"/><path class="cls-9" d="M13.06,6.41c-.35-.15-.81-.25-.18-.5C11.67,6,11.85,6.51,13.06,6.41Z"/><path class="cls-10" d="M9.92,4.61,9.45,4.4,9,4.64C9.24,4.52,10,4.83,9.92,4.61Z"/><path class="cls-11" d="M17.83,7.09c0-.15-.21-.41-.26-.6l-.47.17C17.34,6.77,17.8,6.86,17.83,7.09Z"/><path class="cls-12" d="M17.57,6.49l.7-.26C17.64,6.2,17.53,6.32,17.57,6.49Z"/><polygon class="cls-13" points="14.6 5.4 13.45 5.95 14.82 5.4 14.6 5.4"/><polygon class="cls-14" points="20.5 7.11 20.11 7.46 20.82 6.93 20.5 7.11"/><path class="cls-15" d="M22.28,7c-.29.3.4.5.09.68a3.36,3.36,0,0,0,1.27-.53A1.82,1.82,0,0,1,22.28,7Z"/><path class="cls-16" d="M24.26,6.86a3.77,3.77,0,0,0-.62.33A2,2,0,0,0,24.26,6.86Z"/><path class="cls-17" d="M19.46,6.3a.84.84,0,0,0,.55.44l-.27-.43Z"/><path class="cls-18" d="M19.73,6.3h0l.59,0Z"/><path class="cls-19" d="M19.39,6.3h.07S19.42,6.25,19.39,6.3Z"/><path class="cls-20" d="M16.43,5.79c.41-.24,1.27-.49.44-.86C16.58,5.22,17.05,5.43,16.43,5.79Z"/><path class="cls-21" d="M19.05,5.77l-.74-.1c0,.11.15.28-.06.39Z"/><polygon class="cls-22" points="19.42 5.63 19.05 5.77 19.33 5.8 19.42 5.63"/><path class="cls-23" d="M23,6.46a2.5,2.5,0,0,1,1.07-.23,7,7,0,0,0-1.28-.13C22.71,6.24,22.53,6.48,23,6.46Z"/><path class="cls-24" d="M21.4,6.34l.07,0S21.39,6.27,21.4,6.34Z"/><path class="cls-25" d="M28,6.23l-.06-.07s0,0,0,.07Z"/><path class="cls-26" d="M22.7,6a.72.72,0,0,0-.69.16,4.43,4.43,0,0,1,.76-.08C22.8,6,22.8,6,22.7,6Z"/><path class="cls-27" d="M25.35,6.66a4.09,4.09,0,0,0-.56-.23C25,6.56,25.29,6.77,25.35,6.66Z"/><path class="cls-28" d="M21.58,6.44l0,0C21.64,6.55,21.63,6.5,21.58,6.44Z"/><path class="cls-29" d="M21.58,6.44A1.82,1.82,0,0,0,22,6.18a2.66,2.66,0,0,0-.54.14A.63.63,0,0,1,21.58,6.44Z"/><path class="cls-30" d="M29.15,3.49c-.06.4-.9.76-1.63.34-.71.29-.24,1.6.38,2.33,0-.18,0-.34.76-.57-.26-.22-1.63-.51-1-.86,1-.21.79.14,1.27.35-.4-.5,1.24-.72,1-1.45l-.85.26C29.07,3.77,29.38,3.59,29.15,3.49Z"/><path class="cls-31" d="M26.5,6.12l-.3,0a2.8,2.8,0,0,1,1,.54c.51-.19.61-.34.65-.47L26.4,6.17Z"/><path class="cls-32" d="M24.84,6.17c.23-.43,1-.62.52-1.08-.89,0-.63.36-1.16.54,1.44-.1-.41.24.63.49a4.71,4.71,0,0,1-.78.11,5.33,5.33,0,0,1,.74.2l0,0h0c-.07-.06-.09-.09,0-.06h0a.46.46,0,0,1,.07-.16c.41.09.06.11-.07.16s0,0,0,.07h0l1.44-.24A5.54,5.54,0,0,0,24.84,6.17Z"/><path class="cls-33" d="M17.64,4a.12.12,0,0,1,0,.1C17.78,4.05,17.81,4,17.64,4Z"/><path class="cls-34" d="M18.23,4.27a.59.59,0,0,1-.53.18c-.3-.13,0-.2,0-.35-.2.12-.71.31-.07.52l.1-.06c.58.15,1.32.69,1.22.75A2.94,2.94,0,0,0,18.23,4.27Z"/><path class="cls-35" d="M21.57,5.11l1.2-.22-.61-.37,0,.23C21.51,4.66,21.66,4.93,21.57,5.11Z"/><polygon class="cls-36" points="28.1 6.45 27.94 6.9 28.63 6.26 28.1 6.45"/><polygon class="cls-37" points="29.65 6.39 29.59 6.79 30 6.55 29.65 6.39"/><path class="cls-38" d="M117.29,1.48l.35-.11A1.83,1.83,0,0,0,117.29,1.48Z"/><path class="cls-39" d="M114.75,1.46l-.06.19C114.81,1.54,114.85,1.46,114.75,1.46Z"/><path class="cls-40" d="M67.8,6.35c.51.37,1.08.94,1,.5l-.16-.44A1.41,1.41,0,0,1,67.8,6.35Z"/><path class="cls-41" d="M93.92,3.76l-.15-.13L93.42,4Z"/><path class="cls-42" d="M94.28,2l.67.28A3,3,0,0,0,94.28,2Z"/><path class="cls-43" d="M131.18,1l.41-.44C131,.58,131.23.81,131.18,1Z"/><path class="cls-44" d="M45.56,6.23a4,4,0,0,0,1.1.27C46.13,6.25,45.7,5.87,45.56,6.23Z"/><path class="cls-45" d="M116.29,6.09c.22-.08.31-.17.3-.27C116.37,5.9,116.25,6,116.29,6.09Z"/><path class="cls-46" d="M47.94,6.49l-.24-.1a3.77,3.77,0,0,1-1,.11A1.21,1.21,0,0,0,47.94,6.49Z"/><path class="cls-47" d="M181.53,1.38l.12.05C181.66,1.38,181.61,1.37,181.53,1.38Z"/><path class="cls-48" d="M196.2,5.76a3.52,3.52,0,0,1-.6,0A1.42,1.42,0,0,0,196.2,5.76Z"/><path class="cls-49" d="M35.9,6.58c-.33,0,0,0,0,0Z"/><path class="cls-50" d="M34.3,4.87a.28.28,0,0,0,.13-.21A.36.36,0,0,1,34.3,4.87Z"/><path class="cls-51" d="M51.22,3.79h0C51.15,3.71,51.16,3.73,51.22,3.79Z"/><path class="cls-52" d="M35.41,6.39a2.1,2.1,0,0,0,.42.12A2.71,2.71,0,0,0,35.41,6.39Z"/><path class="cls-53" d="M35.47,6.59l-.29,0C35.14,6.62,35.18,6.67,35.47,6.59Z"/><path class="cls-54" d="M36.36,6.56a1.84,1.84,0,0,1-.53,0c.06,0,.09.06.07.07Z"/><path class="cls-55" d="M154.55,2.54l.07,0C155,2.4,154.81,2.43,154.55,2.54Z"/><path class="cls-56" d="M76.37,1.84l0,0,0,0Z"/><path class="cls-57" d="M77.55,1.52a.94.94,0,0,1-1.17.36l.39,1.25Z"/><path class="cls-58" d="M123.38,1.36,122.55,1c1-.64,1.73-.42,1-1-.12,1.36-3.23.14-3.35,1.5l-.55-.29c.16,0,.19-.07.34-.05-1.06-.65-.79,1-2.16.79-.48-.11-.81-.31-.49-.47l-1.06.34c-.31,0-.24-.26.07-.24l-1.62.11v0a6.7,6.7,0,0,1-1,.68c-.41-.19.21-.14.11-.31l-.9.33c-.37-.35.37-.69,1-.64-.84-1.36-.75.34-2.56-.45l.85-.18c-.55-.77-1.22-.49-2.18-1,.23.25,1.93,1.21,1,1.55a1.35,1.35,0,0,0-1.16.12c0-.48-.52-.36-1.17-.33l0-.64c-.7.18-.65.51-1,.79-.78-.06-.94-.55-1.12-1-1.25-.1.85.79-.62.91a5.24,5.24,0,0,0-3,.4c-.72-.22.12-.39-.13-.57l-.65.51c-.15,0-.1-.17-.08-.25-.54.2,0,.64-.89.81-.23.71-1.74-1-2.79-.23-.26-.18.12-.39,0-.63A8.83,8.83,0,0,0,96,2.66l-1-.42c.74.48-.2,1-1,1.52a7.51,7.51,0,0,0,.64.53l-1.33.34c-.16-.1,0-.32.19-.59a2.5,2.5,0,0,0-.24.16c-.47-.24-.23-.61.11-1l.48.4c.32-.39.63-.82.56-1.2a1,1,0,0,1-.43.18c.08-.11.14-.2.1-.27s-.18.08-.4.24l-.3-.71-.07.28L91.49,1.7c-1.23.72-2.31,1.78-4.28,2.07.49-.52.11-.85.13-1.47.54.66,1.53-.28,2.54-.15-.53-.07-.41-.36-.28-.46l-1.81.59c0-.5-.39-.38-.86-.59.36,1-1.36.67-2.1,1,0-.34.13-.68,1-.6-1-.75-1.29,1.18-2.27.53.22,0,.34,0,.43-.12-.52.3-1.77.06-1.48-.23h.22c-1.46-.12-4.45,0-4.67.84a6,6,0,0,1,.28-1.19L75.77,4.75c.23-.73-.65-2.47.56-2.89a2.16,2.16,0,0,0-1.51,0c.23.1.59,1.05.26,1.12-.89-.81-.61-.44-1.71-1.13.35.16,0,1.3-.61,1.27.09-.17,0-1.13.16-1.25L71.52,3c.35-.2.06-.95-.25-1.27.15.22-1.21,0-1.58.09l.59.26c-1.58-.17-1.56,1.58-3.13,1.52.19-.23.47-1.42-.33-1.57-.37.58-1.62,2.77-3,3.22L63.55,5l-1.07.37A23,23,0,0,1,66,1.92c-.59-.26-.16-.38-1-.36-.31-.3.48-.46.75-.48L63.65.88c.09.67-1.58.67-1.5,1.23l2.24-.69c.09.67-1.29,1.91-2.75,1.79-.38-.27.27-1.2.24-1.42a2.13,2.13,0,0,1-1.52.27L61,1.7c-.81-.25-1.33.9-2.31.25-.33,0-1-.86-1.06-.46A5.27,5.27,0,0,1,57.9,5.2a11.42,11.42,0,0,1-2.16-1.11c-.56-.6.84-1.43.36-1.95,0,.18-.33.41-.45.48-.36-.15.14-.57-.63-.48-.13.68-1.56-.06-.36.57-.75.2-.8-.14-1.69-.11.28.44-.79,1.5-1.55,1.7,0-.18-.12-.4-.2-.51-1.55-.06-2.38-.37-3.82-.37-.13-.17-.83-.37-.53-.66a1.53,1.53,0,0,1-.84.37c-.86-.59,1-.09.33-.8,0,.39-1.15.54-1.78.79.2.61,1.46.12,2.1-.13,0,.84-1.1,1.73-2.61,2.12-1.2.21-.52-.55-.73-.43-2.24-.14-1.91,1.48-3.78.87-.74-.54,0-1.07-.19-1.46,1-.2,1.49.34,2.15.32l-.81-.25A1.76,1.76,0,0,1,42,4c-.62-.49-3.79-.1-5.53-.54-.31.18-.84.37-.59.58L36.45,4c.51.43-1,.6-.33.8a4.1,4.1,0,0,1-2.6.54l-.2-.62c0,.18.68.37,1,.18-.43.27-1.59-.83-2.06,0l.73.42c-.74.31-1.66,1-2.57.77.41.6.21-.07.86.64-.57-.89,2.35,0,1.44-.89.67.82,1.16.34,2,1,0-.21-.31-.39.46-.29a1,1,0,0,1,.17-.18l.06,0,0,0s0,0,0,0a.87.87,0,0,1-.4-.3c.39-.47,1.61-.45,2-.69.46.09-.19.23.06.44l.62-.36c.06.45,1.21.75.13,1l1,0a2.66,2.66,0,0,0,1.84.17c.46.09,1.16-.5.76-.15l1.52-.28,0,.12c1.5,0,3.09-.75,4.8.06a4.47,4.47,0,0,1,1.87-.12l.17.39c.65-.14,1.95.38,2.23,0,.7,1.05,3.14.23,4.29.41l0-.5a10.45,10.45,0,0,0,2.51-.32l-.06-.45c.84-.37,2.16.32,3.49.27-.09.17-.43.13-.66,0,1.58,1,3.35-.74,4.79,0a1,1,0,0,1,.87,0l-.09,0h.15c.16.08.32.17.5.24a1.89,1.89,0,0,0-.42-.24,5.4,5.4,0,0,0,1.1-.18l.18.48h.09c.41.18.33-.23.11-.59a2.37,2.37,0,0,0,.55-.29c.33.78,1.08-.26,1.53.57.27-.41,2.06-.31,2.28-1.16,0,.11.14.16-.08.17a1.79,1.79,0,0,0,1.33,0l.19.61,1-.83c.61.38.86.59.26,1.07,1.46-.73,1.18-.28,2.42-1l-.06.4c.45,0,1.16-.54,1.42-.22,1,.75,4.91.11,7.46.81-.49-1.17,1.18.52,1.29-.39.14.28.5.44.09.68,1.3-.28,1.95.43,2.85-.33.15.28-.28.41-.15.57.11-.06.41-.24.55-.08s-.19.23-.4.36c1.33,0,1.47-.9,1.56-1.7.67.38,1,.33,1.5-.2.23.26.62.54-.2.63.46,0,2.83.38,2.88-.26.14.17.65.05.77,0a15.6,15.6,0,0,0,2.16,0l-.29-.1c.41-.77.85-.17,1.68-.27l0,.08c1.89.56.82-.26,2.69.37L104,4.79c.18-1,1.66.61,2.74.21l-.39-.27c.59-.35,1.65,1.4,2.24,1.53.13.09-.2.15-.38.21,1.55.61.2-.63,1.36-.77.21.34-.28.86.5.92.39.28,2.26-1.1,3.33-.45-.24-.26-.47-.52.07-.71.82-.1,2.23,1,3,.16.11.07.15.14.15.2.63-.21,2-.35,2.43-.8.58,1.66,3.92-.8,3.91.73l1.93-.09,0,.16a2.43,2.43,0,0,0,2.12-.63c.28.1.07.25,0,.33A4,4,0,0,0,130.49,5l.16.49c.41-.28,2.62.78,4.39.2a.31.31,0,0,1-.19.22c2-.58,4.78,1.38,5.51-.43L141.68,5c-1.7-.14.26-.78-.44-1.08.67-.11,1.73.54.91.63L142,4.5c-.31.94,2.12.34,2.07,1,3.36-.05,6.63.47,9.78.51l-.37-.73,1.1,0c.29.17.39.58-.4.54.42.42,1.32-.34,1.34-.5,1.53.29-.6.85-.13.87l.64-.06-.15-.08c.52-.3.57-.62,1.51-.58.59.15.3.45.54.48,0,0,.08.07.36,0l1.38.06-.55-.58c.61-.28,1.3,0,.66-.62.93,1,5.15.36,5.73.68a5.21,5.21,0,0,1,2.75-.37c-.26-.12-.42-.77.49-.69-.33,1.34,1.66.58,2.39,1.55-.66-.64,2.57-.16,1.54-1.07.76.11.05.5.62.82,1.8-.52,4,.34,6.18.16,0-.17-.33-.44.14-.7l1.18.87c.44-.08.4-1,1.2-.4-.11-.15-.28-.37,0-.43,4.36.86,8.9-.7,13.31.91-.59-.34-.19-.37.26-.39-.29-.08,0-.43,0-.67l1.85.66c.34-.66,2,0,2.18-.67l-.59.11c.78-.75-1.09-1.66-1-2.62-.88.85-2.31-1.25-3.74,0-.31-.19.27-.31.1-.53-.36.41-.8.5-1.61.31l.09-.1c-2.28.1-3.26-.3-5.82-.57l.19.47a2,2,0,0,1-.92-.33c-.64.72,1.54,0,1,.83-.73-1-3.89,0-4.38-1.11-.85,0,.25.55-.6.54l-.22-.29-.22.38a.88.88,0,0,1-.85-.69,2,2,0,0,0,.52-.09c-.72-.35-2,.12-2.27,0l.81.18c-2.31.28-5.13-.11-7.37.49l.17.23c-1.7.41-1.37-.25-3.24-.06l.07,0a2.6,2.6,0,0,1-1.39.31c.48-.26-.89-.51-.27-.8-1.85.44-.91.35-2.13,1.18l-.29-.37a1.82,1.82,0,0,1-1.38.61c.77-.32-.6-.57.26-1-2-.81-2.91.82-3.81-.37-.91,1,1.69.57,1.19.79.42.34-.74.77-1.36.67s-1.07-1.32-2.64-1.3c.15,0,.16-.07.32-.07-.59-.26-1.16.36-1.88-.07-.41.62-.94,0-1.06.76l1.45-.18c-.82.2-1.59,1.13-2.94.68a2.28,2.28,0,0,1,.78-.49c-.39-.23-.76.16-1.17-.08.12-.79,1.76-.17,2.64-.78-.42-.33-1.66.58-1.22-.28-.64,1.09-1.56-.14-2.62.69l.07-.47a2.12,2.12,0,0,1-.83.29l.56-.62c-.86.53-1.67-.46-2.5-.17,1.74,0,.39.57,1.13.92-2.14.63-1.23-1.25-3.63-1,.32-.07,1.22.29.71.51A3.39,3.39,0,0,1,146.35,1c-1.59.1.24.49-.43.78-.54-.58-.78.23-1.48.42V1.72c-1.81-.31-.48,1-2.11.63l.68-.67-.85.17.18-.55a2.8,2.8,0,0,1-2.12.15c.21.34-.12.88-.92.89-.55-.29.31-.46-.83-.39.26-.3.54-.68,1-.24.05-.15.26-.3.31-.45a3.62,3.62,0,0,0-1.89-.07.92.92,0,0,1,.44.11L136.71,2c-.25-.18-.05-.33.15-.47a7.21,7.21,0,0,1-1.05.31c.13-.39.1-.79.79-1L135,1.27c-.1-.17-.81-.47-.6-.62-.87-.23-2.14.76-3.29.46a.73.73,0,0,1-.43.21c-1.08-.09-2-.57-3.33,0l-.73-.7c-1,.16,1,.89-.69,1.15-1.18.23-.44-.6-.85-.79-.59.35-1.62,1.07-2.71.5A4.14,4.14,0,0,1,123.38,1.36ZM111,1.67c.24-.1.72-.41.9-.13C111.59,2.09,111.37,1.83,111,1.67ZM92.09,2.83c.18-.16.46-.08.77.1A1.26,1.26,0,0,1,92.09,2.83ZM39.51,6.19l0,0C40.07,6.35,39.88,6.28,39.51,6.19ZM38.4,6c-.11.07-.11.14-.06.2.08-.12.33-.13.61-.09C38.87,6,38.73,5.87,38.4,6Zm119.67-.19-.22-.13C158.34,5.53,158.21,5.65,158.07,5.79Z"/><path class="cls-59" d="M94.23,2.17a.44.44,0,0,1,.1.26C94.43,2.35,94.43,2.26,94.23,2.17Z"/><path class="cls-60" d="M131.1,1.1h0a.36.36,0,0,0,0-.09Z"/><path class="cls-61" d="M55.66,1.89a.92.92,0,0,1,.44.25C56.11,2,56,1.92,55.66,1.89Z"/><path class="cls-62" d="M32.49,6.8l.72-.12a1.16,1.16,0,0,1-.65-.16C32.58,6.63,32.72,6.79,32.49,6.8Z"/><path class="cls-63" d="M26.3,3.82c-.11.05-.22,0-.33.06l0,.23C26.45,4.09,26.76,3.91,26.3,3.82Z"/><path class="cls-64" d="M31.83,5.2c-.06-.41-.5-.27-1-.2h.09C30.77,5.57,31.3,5.38,31.83,5.2Z"/><path class="cls-65" d="M30.71,5a1.77,1.77,0,0,1-.46,0C30.19,5.26,30.44,5.08,30.71,5Z"/><path class="cls-66" d="M37,6.25c-.23-.1-.14.52-.28.35C36.44,7.12,38.28,6,37,6.25Z"/><polygon class="cls-67" points="31.43 3.86 31.61 4.36 31.89 3.96 31.43 3.86"/><path class="cls-68" d="M35.37,4.23l-.79-.14c0,.08-.09.13-.22.17C34.85,4.28,35.39,4.38,35.37,4.23Z"/><path class="cls-69" d="M34.36,4.26a1.35,1.35,0,0,0-.64.08A2.66,2.66,0,0,0,34.36,4.26Z"/><polygon class="cls-70" points="32.52 3.71 32.76 3.81 33.32 3.85 32.52 3.71"/><path class="cls-71" d="M44,4.33l.88-.15c.08-.17-.15-.28-.48-.21S43.83,4.16,44,4.33Z"/><path class="cls-72" d="M41.33,3c.23.11.25.22.38.38l0-.62Z"/><path class="cls-73" d="M43.87,2.81c.09-.17,1.26-.5.16-.46C43.94,2.52,43.07,2.67,43.87,2.81Z"/><polygon class="cls-74" points="57.01 3.59 56.79 3.6 56.82 4.62 57.01 3.59"/><path class="cls-75" d="M68.59,1.16c-1-.25-.25.63-1.18.32-.24.24.76.25.51.46C68.55,1.68,68.87,1.83,68.59,1.16Z"/><path class="cls-76" d="M67.92,1.94l-.31.15A1,1,0,0,0,67.92,1.94Z"/><polygon class="cls-77" points="198.64 6.31 199.3 6.52 198.88 6.18 198.64 6.31"/><path class="cls-78" d="M199.91,5.55l.16.65.4-.59C200.32,5.64,200,5.7,199.91,5.55Z"/><path class="cls-79" d="M109.12.36l-.05.16c.1.17.26.18.57.21Z"/><polygon class="cls-80" points="118.13 0.85 117.97 0.83 118.26 1.42 118.13 0.85"/><path class="cls-81" d="M125.69.1c-.31,0-.67.11-1,.08C125.38.08,125.78.83,125.69.1Z"/></g></g></svg>