<svg xmlns="http://www.w3.org/2000/svg" xmlns:xlink="http://www.w3.org/1999/xlink" viewBox="0 0 65.94 85.67"><defs><style>.cls-1{fill:url(#Dégradé_sans_nom_9);}.cls-2{fill:#683c11;}</style><linearGradient id="Dégradé_sans_nom_9" x1="4.96" y1="43.06" x2="65.94" y2="43.06" gradientUnits="userSpaceOnUse"><stop offset="0" stop-color="#e6332a"/><stop offset="1" stop-color="#f9b233"/></linearGradient></defs><g id="Calque_2" data-name="Calque 2"><g id="Calque_1-2" data-name="Calque 1"><path class="cls-1" d="M57.25,21.81A118.33,118.33,0,0,0,48.33,4.33a9.43,9.43,0,0,0-2.68-3.26C44,.07,42.3.5,40.57.91q-5,1.21-10,2.69A200.38,200.38,0,0,0,8.43,11.66a1.86,1.86,0,0,0-.86,2.12c6,14.38,12,28.87,15.31,44.13q.59,2.69,1.05,5.39a8.68,8.68,0,0,0-2-1.19c-3.16-1.34-6.55-.43-9.64.63l-.21.09a2.47,2.47,0,0,0-1.35.19C6.22,65,4.51,70.9,5.07,75.41c.59,4.78,3.69,8.89,8.52,10a12,12,0,0,0,12.06-4.14,13.43,13.43,0,0,0,2.66-9.16,1.59,1.59,0,0,0,.4-1.16c-1.54-15.71-6.5-30.72-12.29-45.32q16.32-6.36,32.93-11.9a114.8,114.8,0,0,1,9.76,25.85q1.14,4.64,1.87,9.33a8.13,8.13,0,0,0-1.79-1c-3.16-1.34-6.55-.42-9.65.63l-.23.1a2.36,2.36,0,0,0-1.32.19c-4.52,2-6.23,7.87-5.67,12.39.59,4.78,3.69,8.89,8.52,10A12,12,0,0,0,62.9,67a12.93,12.93,0,0,0,2.47-5.63,1.58,1.58,0,0,0,.57-1.4A118.43,118.43,0,0,0,57.25,21.81ZM23.38,77.92a8.07,8.07,0,0,1-7.78,4A7.26,7.26,0,0,1,9,76.36C8.15,73,9,68.15,12.3,66.42h0a1.77,1.77,0,0,0,1-.07c2-.69,4.4-1.6,6.57-1a6.21,6.21,0,0,1,3.67,3.33A9.86,9.86,0,0,1,23.38,77.92ZM15,22.13C14,19.5,12.89,16.89,11.8,14.27q8.26-3.48,16.83-6.16c3.07-1,6.17-1.85,9.28-2.67,1.52-.39,3-.8,4.57-1.13.65-.14,1-.26,1.44.18a8.61,8.61,0,0,1,1.29,1.92q1.2,1.95,2.33,3.94Q31.15,15.84,15,22.13ZM60.62,63.65a8.05,8.05,0,0,1-7.77,4,7.24,7.24,0,0,1-6.56-5.54c-.9-3.35-.09-8.2,3.26-9.93h0a1.77,1.77,0,0,0,1-.07c2-.7,4.4-1.61,6.57-1a6.18,6.18,0,0,1,3.67,3.33A9.83,9.83,0,0,1,60.62,63.65Z"/><path class="cls-2" d="M52.28,21.35A118.33,118.33,0,0,0,43.36,3.87,9.43,9.43,0,0,0,40.68.61C39.07-.39,37.33,0,35.6.45q-5,1.22-10,2.69A200.38,200.38,0,0,0,3.46,11.2a1.86,1.86,0,0,0-.86,2.12c6,14.38,12,28.87,15.31,44.13q.59,2.69,1.05,5.39a8.68,8.68,0,0,0-2-1.19c-3.16-1.34-6.55-.43-9.64.63l-.21.09a2.47,2.47,0,0,0-1.35.19C1.25,64.52-.46,70.44.1,75c.59,4.78,3.69,8.89,8.52,10a12,12,0,0,0,12.06-4.14,13.43,13.43,0,0,0,2.66-9.16,1.59,1.59,0,0,0,.4-1.16c-1.54-15.71-6.5-30.72-12.29-45.32q16.32-6.36,32.93-11.9a114.8,114.8,0,0,1,9.76,25.85q1.14,4.64,1.87,9.33a8.13,8.13,0,0,0-1.79-1C51.06,46,47.67,47,44.57,48l-.23.1a2.36,2.36,0,0,0-1.32.19c-4.52,2-6.23,7.87-5.67,12.39.59,4.78,3.69,8.89,8.52,9.95a12,12,0,0,0,12.06-4.14,12.93,12.93,0,0,0,2.47-5.63,1.58,1.58,0,0,0,.57-1.4A118.43,118.43,0,0,0,52.28,21.35ZM18.41,77.46a8.07,8.07,0,0,1-7.78,4A7.26,7.26,0,0,1,4.07,75.9C3.18,72.54,4,67.69,7.33,66h0a1.77,1.77,0,0,0,1-.07c2-.69,4.4-1.6,6.57-1a6.21,6.21,0,0,1,3.67,3.33A9.86,9.86,0,0,1,18.41,77.46ZM10.06,21.67C9,19,7.92,16.43,6.83,13.81q8.27-3.48,16.83-6.16c3.07-1,6.17-1.85,9.28-2.67,1.52-.39,3-.8,4.57-1.13.65-.14,1-.26,1.44.18A8.61,8.61,0,0,1,40.24,6q1.2,2,2.33,3.94Q26.18,15.38,10.06,21.67ZM55.65,63.19a8.05,8.05,0,0,1-7.77,4,7.24,7.24,0,0,1-6.56-5.54c-.9-3.35-.09-8.2,3.26-9.93h0a1.77,1.77,0,0,0,1-.07c2-.7,4.4-1.61,6.57-1a6.18,6.18,0,0,1,3.67,3.33A9.83,9.83,0,0,1,55.65,63.19Z"/></g></g></svg>